<svg xmlns="http://www.w3.org/2000/svg" width="300" viewBox="0 0 300 300" height="300" version="1.0"><defs><clipPath id="a"><path d="M 86.140625 162 L 226.390625 162 L 226.390625 240.78125 L 86.140625 240.78125 Z M 86.140625 162"/></clipPath><clipPath id="b"><path d="M 125 100.53125 L 163 100.53125 L 163 128 L 125 128 Z M 125 100.53125"/></clipPath></defs><path fill="#004AAD" d="M-30 -30H330V330H-30z"/><g fill="#545454" fill-opacity=".741"><g><g><path d="M 2.34375 -9.15625 C 1.988281 -7.675781 1.398438 -6.410156 0.578125 -5.359375 C -0.242188 -4.304688 -1.269531 -3.554688 -2.5 -3.109375 C -3.738281 -2.671875 -5.113281 -2.628906 -6.625 -2.984375 C -7.675781 -3.234375 -8.773438 -3.695312 -9.921875 -4.375 C -12.367188 -5.800781 -13.976562 -7.46875 -14.75 -9.375 C -15.53125 -11.289062 -15.703125 -13.179688 -15.265625 -15.046875 C -15.023438 -16.046875 -14.664062 -16.894531 -14.1875 -17.59375 C -13.707031 -18.300781 -13.101562 -18.910156 -12.375 -19.421875 L -12.765625 -20.28125 C -13.015625 -20.84375 -13.171875 -21.300781 -13.234375 -21.65625 C -13.304688 -22.019531 -13.296875 -22.40625 -13.203125 -22.8125 C -13.097656 -23.25 -12.914062 -23.570312 -12.65625 -23.78125 C -12.40625 -24 -12.09375 -24.0625 -11.71875 -23.96875 C -11.519531 -23.925781 -11.335938 -23.847656 -11.171875 -23.734375 L -7.40625 -21.28125 C -6.96875 -21.007812 -6.675781 -20.742188 -6.53125 -20.484375 C -6.394531 -20.222656 -6.378906 -19.875 -6.484375 -19.4375 C -6.585938 -18.976562 -6.835938 -18.640625 -7.234375 -18.421875 C -7.628906 -18.210938 -8.265625 -18.015625 -9.140625 -17.828125 C -10.054688 -17.597656 -10.675781 -17.378906 -11 -17.171875 C -11.332031 -16.972656 -11.5625 -16.625 -11.6875 -16.125 C -11.851562 -15.394531 -11.570312 -14.59375 -10.84375 -13.71875 C -10.125 -12.84375 -8.9375 -11.914062 -7.28125 -10.9375 C -5.894531 -10.132812 -4.707031 -9.613281 -3.71875 -9.375 C -2.832031 -9.164062 -2.132812 -9.175781 -1.625 -9.40625 C -1.125 -9.644531 -0.804688 -10.046875 -0.671875 -10.609375 C -0.472656 -11.429688 -0.492188 -12.15625 -0.734375 -12.78125 C -0.972656 -13.40625 -1.335938 -14.078125 -1.828125 -14.796875 C -2.140625 -15.234375 -2.359375 -15.582031 -2.484375 -15.84375 C -2.617188 -16.113281 -2.660156 -16.367188 -2.609375 -16.609375 C -2.535156 -16.921875 -2.296875 -17.21875 -1.890625 -17.5 C -1.492188 -17.78125 -1.140625 -17.875 -0.828125 -17.78125 C -0.441406 -17.707031 0.078125 -17.253906 0.734375 -16.421875 C 1.398438 -15.585938 1.914062 -14.523438 2.28125 -13.234375 C 2.65625 -11.953125 2.675781 -10.59375 2.34375 -9.15625 Z M 2.34375 -9.15625" transform="translate(49.856 149.623)"/></g></g></g><g fill="#545454" fill-opacity=".741"><g><g><path d="M -11.21875 -19.734375 C -10.257812 -21.804688 -9.019531 -23.195312 -7.5 -23.90625 C -5.988281 -24.613281 -4.316406 -24.546875 -2.484375 -23.703125 C -1.609375 -23.296875 -0.734375 -22.726562 0.140625 -22 C 1.742188 -20.65625 2.945312 -19.171875 3.75 -17.546875 C 4.5625 -15.929688 4.960938 -14.253906 4.953125 -12.515625 C 4.953125 -10.785156 4.566406 -9.085938 3.796875 -7.421875 C 2.847656 -5.367188 1.613281 -3.984375 0.09375 -3.265625 C -1.425781 -2.554688 -3.101562 -2.628906 -4.9375 -3.484375 C -5.769531 -3.867188 -6.660156 -4.453125 -7.609375 -5.234375 C -9.210938 -6.546875 -10.410156 -8.003906 -11.203125 -9.609375 C -11.992188 -11.222656 -12.390625 -12.890625 -12.390625 -14.609375 C -12.390625 -16.328125 -12 -18.035156 -11.21875 -19.734375 Z M -9 -18.1875 C -9.226562 -17.695312 -9.234375 -17.160156 -9.015625 -16.578125 C -8.804688 -15.992188 -8.34375 -15.300781 -7.625 -14.5 C -6.914062 -13.707031 -5.867188 -12.722656 -4.484375 -11.546875 C -2.492188 -9.835938 -1.0625 -8.78125 -0.1875 -8.375 C 0.320312 -8.132812 0.726562 -8.050781 1.03125 -8.125 C 1.34375 -8.195312 1.585938 -8.425781 1.765625 -8.8125 C 1.992188 -9.300781 2 -9.835938 1.78125 -10.421875 C 1.5625 -11.015625 1.097656 -11.703125 0.390625 -12.484375 C -0.304688 -13.265625 -1.332031 -14.25 -2.6875 -15.4375 C -4.644531 -17.125 -6.082031 -18.179688 -7 -18.609375 C -7.53125 -18.847656 -7.953125 -18.929688 -8.265625 -18.859375 C -8.578125 -18.785156 -8.820312 -18.5625 -9 -18.1875 Z M -9 -18.1875" transform="translate(54.891 129.185)"/></g></g></g><g fill="#545454" fill-opacity=".741"><g><g><path d="M 4.046875 -34.015625 C 4.296875 -34.316406 4.53125 -34.507812 4.75 -34.59375 C 4.976562 -34.6875 5.175781 -34.664062 5.34375 -34.53125 C 5.414062 -34.46875 5.484375 -34.375 5.546875 -34.25 C 5.648438 -34.09375 5.703125 -33.953125 5.703125 -33.828125 C 5.703125 -33.703125 5.691406 -33.523438 5.671875 -33.296875 C 5.597656 -32.960938 5.585938 -32.664062 5.640625 -32.40625 C 5.703125 -32.144531 5.847656 -31.84375 6.078125 -31.5 L 13.15625 -21.640625 C 13.28125 -21.429688 13.429688 -21.257812 13.609375 -21.125 C 13.753906 -21 13.898438 -20.921875 14.046875 -20.890625 C 14.203125 -20.859375 14.378906 -20.820312 14.578125 -20.78125 C 14.691406 -20.78125 14.804688 -20.773438 14.921875 -20.765625 C 15.035156 -20.753906 15.140625 -20.710938 15.234375 -20.640625 C 15.253906 -20.617188 15.3125 -20.539062 15.40625 -20.40625 C 15.53125 -20.207031 15.550781 -19.972656 15.46875 -19.703125 C 15.394531 -19.429688 15.207031 -19.101562 14.90625 -18.71875 L 10.921875 -13.734375 C 10.691406 -13.441406 10.460938 -13.253906 10.234375 -13.171875 C 10.015625 -13.085938 9.816406 -13.113281 9.640625 -13.25 C 9.554688 -13.320312 9.484375 -13.414062 9.421875 -13.53125 C 9.347656 -13.65625 9.300781 -13.785156 9.28125 -13.921875 C 9.269531 -14.066406 9.273438 -14.179688 9.296875 -14.265625 C 9.316406 -14.359375 9.328125 -14.4375 9.328125 -14.5 C 9.367188 -14.8125 9.367188 -15.101562 9.328125 -15.375 C 9.285156 -15.644531 9.144531 -15.957031 8.90625 -16.3125 L 4.46875 -22.484375 L 6.890625 -11.578125 C 7.078125 -10.679688 7.160156 -10.007812 7.140625 -9.5625 C 7.128906 -9.125 6.984375 -8.734375 6.703125 -8.390625 C 6.421875 -8.046875 6.097656 -7.867188 5.734375 -7.859375 C 5.367188 -7.847656 4.859375 -7.96875 4.203125 -8.21875 L -3.921875 -11.453125 L 0.3125 -5.515625 C 0.445312 -5.316406 0.597656 -5.144531 0.765625 -5 C 0.929688 -4.875 1.09375 -4.789062 1.25 -4.75 C 1.40625 -4.707031 1.582031 -4.679688 1.78125 -4.671875 C 2.0625 -4.660156 2.257812 -4.609375 2.375 -4.515625 C 2.40625 -4.492188 2.46875 -4.421875 2.5625 -4.296875 C 2.71875 -4.085938 2.753906 -3.851562 2.671875 -3.59375 C 2.585938 -3.332031 2.390625 -3 2.078125 -2.59375 L 0.671875 -0.84375 C 0.441406 -0.550781 0.210938 -0.363281 -0.015625 -0.28125 C -0.242188 -0.195312 -0.441406 -0.222656 -0.609375 -0.359375 C -0.703125 -0.429688 -0.78125 -0.519531 -0.84375 -0.625 C -0.957031 -0.8125 -1.003906 -1 -0.984375 -1.1875 C -0.972656 -1.382812 -0.957031 -1.503906 -0.9375 -1.546875 C -0.90625 -1.890625 -0.90625 -2.191406 -0.9375 -2.453125 C -0.96875 -2.710938 -1.113281 -3.03125 -1.375 -3.40625 L -8.46875 -13.28125 L -9.859375 -13.84375 C -10.128906 -13.945312 -10.363281 -14.082031 -10.5625 -14.25 C -10.8125 -14.445312 -10.925781 -14.671875 -10.90625 -14.921875 C -10.894531 -15.171875 -10.753906 -15.460938 -10.484375 -15.796875 L -7.875 -19.078125 C -7.53125 -19.503906 -7.179688 -19.75 -6.828125 -19.8125 C -6.472656 -19.875 -6.023438 -19.78125 -5.484375 -19.53125 L 3.25 -16.046875 L 0.6875 -27.5 C 0.53125 -28.21875 0.515625 -28.8125 0.640625 -29.28125 C 0.773438 -29.757812 1.078125 -30.285156 1.546875 -30.859375 Z M 4.046875 -34.015625" transform="translate(63.888 109.164)"/></g></g></g><g fill="#545454" fill-opacity=".741"><g><g><path d="M 2.8125 -25.140625 C 3.34375 -25.546875 3.84375 -25.742188 4.3125 -25.734375 C 4.78125 -25.734375 5.175781 -25.535156 5.5 -25.140625 C 5.644531 -24.941406 5.757812 -24.734375 5.84375 -24.515625 L 6.859375 -22.078125 C 7.054688 -21.617188 7.113281 -21.238281 7.03125 -20.9375 C 6.957031 -20.644531 6.742188 -20.359375 6.390625 -20.078125 C 6.046875 -19.804688 5.71875 -19.664062 5.40625 -19.65625 C 5.101562 -19.65625 4.769531 -19.789062 4.40625 -20.0625 L 3.109375 -21.015625 C 2.847656 -21.210938 2.632812 -21.316406 2.46875 -21.328125 C 2.300781 -21.335938 2.070312 -21.234375 1.78125 -21.015625 L -0.453125 -19.25 L 1.4375 -14.625 L 2.375 -15.359375 C 2.476562 -15.429688 2.5625 -15.601562 2.625 -15.875 L 2.84375 -17.09375 C 2.90625 -17.4375 2.976562 -17.710938 3.0625 -17.921875 C 3.15625 -18.140625 3.316406 -18.335938 3.546875 -18.515625 C 3.796875 -18.710938 4.054688 -18.804688 4.328125 -18.796875 C 4.609375 -18.796875 4.832031 -18.6875 5 -18.46875 C 5.039062 -18.414062 5.097656 -18.320312 5.171875 -18.1875 L 6.609375 -14.53125 C 6.765625 -14.144531 6.796875 -13.796875 6.703125 -13.484375 C 6.617188 -13.179688 6.453125 -12.929688 6.203125 -12.734375 C 5.804688 -12.429688 5.347656 -12.410156 4.828125 -12.671875 L 3.890625 -13.109375 C 3.617188 -13.253906 3.378906 -13.242188 3.171875 -13.078125 L 2.328125 -12.421875 L 4.609375 -6.921875 L 6.484375 -8.390625 C 6.753906 -8.609375 6.953125 -8.847656 7.078125 -9.109375 C 7.203125 -9.367188 7.28125 -9.726562 7.3125 -10.1875 L 7.484375 -12.59375 C 7.515625 -13.019531 7.59375 -13.367188 7.71875 -13.640625 C 7.851562 -13.910156 8.066406 -14.160156 8.359375 -14.390625 C 8.671875 -14.640625 8.984375 -14.769531 9.296875 -14.78125 C 9.617188 -14.789062 9.890625 -14.65625 10.109375 -14.375 C 10.203125 -14.257812 10.28125 -14.101562 10.34375 -13.90625 L 11.40625 -11.265625 C 11.675781 -10.609375 11.742188 -10.054688 11.609375 -9.609375 C 11.484375 -9.160156 11.140625 -8.710938 10.578125 -8.265625 L 0.375 -0.296875 C 0.0820312 -0.0664062 -0.179688 0.0625 -0.421875 0.09375 C -0.660156 0.125 -0.847656 0.0546875 -0.984375 -0.109375 C -1.046875 -0.203125 -1.101562 -0.316406 -1.15625 -0.453125 C -1.21875 -0.660156 -1.21875 -0.851562 -1.15625 -1.03125 C -1.101562 -1.21875 -1.054688 -1.328125 -1.015625 -1.359375 C -0.910156 -1.679688 -0.84375 -1.96875 -0.8125 -2.21875 C -0.789062 -2.476562 -0.863281 -2.820312 -1.03125 -3.25 L -5.609375 -14.53125 C -5.691406 -14.75 -5.789062 -14.9375 -5.90625 -15.09375 C -6.039062 -15.257812 -6.179688 -15.382812 -6.328125 -15.46875 C -6.472656 -15.550781 -6.644531 -15.609375 -6.84375 -15.640625 C -7.113281 -15.722656 -7.296875 -15.828125 -7.390625 -15.953125 C -7.421875 -15.984375 -7.460938 -16.066406 -7.515625 -16.203125 C -7.609375 -16.429688 -7.582031 -16.664062 -7.4375 -16.90625 C -7.300781 -17.15625 -7.039062 -17.429688 -6.65625 -17.734375 Z M -3.421875 -25.859375 C -3.546875 -26.703125 -3.53125 -27.398438 -3.375 -27.953125 C -3.21875 -28.515625 -2.890625 -28.992188 -2.390625 -29.390625 C -1.941406 -29.734375 -1.5 -29.890625 -1.0625 -29.859375 C -0.625 -29.828125 -0.25 -29.617188 0.0625 -29.234375 C 0.394531 -28.796875 0.539062 -28.304688 0.5 -27.765625 C 0.457031 -27.234375 0.242188 -26.5625 -0.140625 -25.75 L -1.296875 -23.40625 C -1.484375 -23.082031 -1.664062 -22.847656 -1.84375 -22.703125 C -2.019531 -22.566406 -2.191406 -22.5 -2.359375 -22.5 C -2.535156 -22.5 -2.691406 -22.585938 -2.828125 -22.765625 C -2.960938 -22.941406 -3.0625 -23.210938 -3.125 -23.578125 Z M -3.421875 -25.859375" transform="translate(83.275 86.187)"/></g></g></g><g fill="#545454" fill-opacity=".741"><g><g><path d="M 3.578125 -21.953125 C 6.003906 -23.160156 8.0625 -23.601562 9.75 -23.28125 C 11.445312 -22.957031 12.742188 -21.894531 13.640625 -20.09375 C 14.085938 -19.207031 14.4375 -18.101562 14.6875 -16.78125 C 15.09375 -14.632812 15.113281 -12.785156 14.75 -11.234375 C 14.394531 -9.691406 13.597656 -8.296875 12.359375 -7.046875 C 11.128906 -5.804688 9.351562 -4.625 7.03125 -3.5 L 0.421875 -0.25 C 0.0859375 -0.0820312 -0.195312 -0.00390625 -0.4375 -0.015625 C -0.6875 -0.0351562 -0.859375 -0.144531 -0.953125 -0.34375 C -0.992188 -0.4375 -1.023438 -0.550781 -1.046875 -0.6875 C -1.066406 -0.851562 -1.046875 -0.992188 -0.984375 -1.109375 C -0.929688 -1.222656 -0.84375 -1.375 -0.71875 -1.5625 C -0.539062 -1.851562 -0.414062 -2.125 -0.34375 -2.375 C -0.28125 -2.625 -0.289062 -2.96875 -0.375 -3.40625 L -2.59375 -15.328125 C -2.632812 -15.566406 -2.703125 -15.785156 -2.796875 -15.984375 C -2.890625 -16.160156 -2.992188 -16.296875 -3.109375 -16.390625 C -3.222656 -16.484375 -3.367188 -16.582031 -3.546875 -16.6875 C -3.796875 -16.832031 -3.957031 -16.96875 -4.03125 -17.09375 C -4.050781 -17.144531 -4.078125 -17.242188 -4.109375 -17.390625 C -4.148438 -17.628906 -4.082031 -17.847656 -3.90625 -18.046875 C -3.738281 -18.253906 -3.425781 -18.472656 -2.96875 -18.703125 Z M 8.203125 -14.21875 C 7.878906 -15.945312 7.5 -17.25 7.0625 -18.125 C 6.632812 -18.988281 6.160156 -19.492188 5.640625 -19.640625 C 5.128906 -19.785156 4.539062 -19.695312 3.875 -19.375 L 3.34375 -19.109375 L 5.9375 -5.671875 L 6.515625 -5.96875 C 7.265625 -6.332031 7.8125 -6.800781 8.15625 -7.375 C 8.5 -7.945312 8.679688 -8.765625 8.703125 -9.828125 C 8.722656 -10.898438 8.554688 -12.363281 8.203125 -14.21875 Z M 8.203125 -14.21875" transform="translate(99.46 73.647)"/></g></g></g><g fill="#545454" fill-opacity=".741"><g><g><path d="M 6.359375 -20.765625 C 6.722656 -20.867188 7.023438 -20.894531 7.265625 -20.84375 C 7.503906 -20.789062 7.65625 -20.65625 7.71875 -20.4375 C 7.738281 -20.351562 7.738281 -20.234375 7.71875 -20.078125 C 7.707031 -19.929688 7.664062 -19.796875 7.59375 -19.671875 C 7.53125 -19.554688 7.460938 -19.46875 7.390625 -19.40625 C 7.328125 -19.34375 7.285156 -19.285156 7.265625 -19.234375 C 7.035156 -19.003906 6.863281 -18.765625 6.75 -18.515625 C 6.632812 -18.265625 6.570312 -17.925781 6.5625 -17.5 L 6.765625 -5.359375 C 6.773438 -5.109375 6.8125 -4.878906 6.875 -4.671875 C 6.9375 -4.472656 7.015625 -4.3125 7.109375 -4.1875 C 7.210938 -4.070312 7.347656 -3.953125 7.515625 -3.828125 C 7.742188 -3.660156 7.878906 -3.503906 7.921875 -3.359375 C 7.929688 -3.328125 7.9375 -3.234375 7.9375 -3.078125 C 7.945312 -2.804688 7.84375 -2.585938 7.625 -2.421875 C 7.414062 -2.265625 7.066406 -2.113281 6.578125 -1.96875 L 0.46875 -0.140625 C 0.101562 -0.0351562 -0.191406 -0.0078125 -0.421875 -0.0625 C -0.660156 -0.125 -0.8125 -0.257812 -0.875 -0.46875 C -0.90625 -0.582031 -0.910156 -0.707031 -0.890625 -0.84375 C -0.890625 -1.050781 -0.828125 -1.226562 -0.703125 -1.375 C -0.578125 -1.519531 -0.492188 -1.609375 -0.453125 -1.640625 C -0.234375 -1.898438 -0.0664062 -2.144531 0.046875 -2.375 C 0.160156 -2.601562 0.21875 -2.945312 0.21875 -3.40625 L 0.046875 -15.546875 C 0.0546875 -15.785156 0.03125 -16.007812 -0.03125 -16.21875 C -0.09375 -16.40625 -0.171875 -16.554688 -0.265625 -16.671875 C -0.367188 -16.785156 -0.5 -16.914062 -0.65625 -17.0625 C -0.882812 -17.25 -1.019531 -17.410156 -1.0625 -17.546875 C -1.070312 -17.597656 -1.082031 -17.691406 -1.09375 -17.828125 C -1.082031 -18.066406 -0.972656 -18.273438 -0.765625 -18.453125 C -0.566406 -18.628906 -0.222656 -18.789062 0.265625 -18.9375 Z M 6.359375 -20.765625" transform="translate(120.678 63.81)"/></g></g></g><g fill="#545454" fill-opacity=".741"><g><g><path d="M 16.015625 -5.28125 C 15.972656 -5.050781 15.96875 -4.820312 16 -4.59375 C 16.019531 -4.394531 16.066406 -4.226562 16.140625 -4.09375 C 16.210938 -3.96875 16.285156 -3.867188 16.359375 -3.796875 C 16.429688 -3.722656 16.476562 -3.664062 16.5 -3.625 C 16.707031 -3.46875 16.820312 -3.300781 16.84375 -3.125 C 16.851562 -3.09375 16.847656 -3 16.828125 -2.84375 C 16.785156 -2.59375 16.648438 -2.398438 16.421875 -2.265625 C 16.191406 -2.140625 15.828125 -2.039062 15.328125 -1.96875 L 8.953125 -1.15625 C 8.578125 -1.101562 8.273438 -1.125 8.046875 -1.21875 C 7.828125 -1.320312 7.703125 -1.484375 7.671875 -1.703125 C 7.660156 -1.816406 7.675781 -1.9375 7.71875 -2.0625 C 7.757812 -2.207031 7.820312 -2.328125 7.90625 -2.421875 C 8 -2.515625 8.125 -2.628906 8.28125 -2.765625 C 8.539062 -2.960938 8.75 -3.171875 8.90625 -3.390625 C 9.0625 -3.609375 9.175781 -3.953125 9.25 -4.421875 L 9.65625 -6.8125 L 5.453125 -6.28125 L 4.90625 -4.65625 C 4.695312 -3.945312 4.613281 -3.40625 4.65625 -3.03125 C 4.6875 -2.820312 4.742188 -2.65625 4.828125 -2.53125 C 4.921875 -2.40625 5.050781 -2.28125 5.21875 -2.15625 C 5.363281 -2.019531 5.460938 -1.90625 5.515625 -1.8125 C 5.578125 -1.71875 5.597656 -1.59375 5.578125 -1.4375 C 5.546875 -1.15625 5.421875 -0.945312 5.203125 -0.8125 C 4.992188 -0.6875 4.648438 -0.59375 4.171875 -0.53125 L 0.15625 -0.015625 C -0.25 0.0351562 -0.566406 0 -0.796875 -0.125 C -1.035156 -0.25 -1.171875 -0.441406 -1.203125 -0.703125 C -1.234375 -0.984375 -1.160156 -1.222656 -0.984375 -1.421875 C -0.804688 -1.617188 -0.519531 -1.84375 -0.125 -2.09375 C 0.375 -2.4375 0.765625 -2.753906 1.046875 -3.046875 C 1.335938 -3.347656 1.570312 -3.75 1.75 -4.25 L 5.265625 -14.78125 C 5.804688 -16.40625 6.523438 -17.628906 7.421875 -18.453125 C 8.316406 -19.273438 9.582031 -19.789062 11.21875 -20 C 13.039062 -20.238281 14.503906 -20.050781 15.609375 -19.4375 C 16.710938 -18.820312 17.347656 -17.851562 17.515625 -16.53125 C 17.585938 -15.96875 17.570312 -15.378906 17.46875 -14.765625 Z M 10.109375 -9.609375 L 10.921875 -14.53125 C 10.960938 -14.757812 10.96875 -14.988281 10.9375 -15.21875 C 10.894531 -15.5625 10.769531 -15.800781 10.5625 -15.9375 C 10.351562 -16.082031 10.082031 -16.132812 9.75 -16.09375 C 9.3125 -16.03125 8.957031 -15.859375 8.6875 -15.578125 C 8.414062 -15.296875 8.164062 -14.804688 7.9375 -14.109375 L 6.34375 -9.125 Z M 10.109375 -9.609375" transform="translate(133.611 59.824)"/></g></g></g><g fill="#545454" fill-opacity=".741"><g><g><path d="M 18.734375 -16.953125 C 19.398438 -16.910156 19.910156 -16.734375 20.265625 -16.421875 C 20.628906 -16.109375 20.796875 -15.695312 20.765625 -15.1875 C 20.742188 -14.9375 20.691406 -14.695312 20.609375 -14.46875 L 19.75 -11.984375 C 19.582031 -11.535156 19.347656 -11.21875 19.046875 -11.03125 C 18.753906 -10.851562 18.375 -10.78125 17.90625 -10.8125 C 17.445312 -10.84375 17.085938 -10.957031 16.828125 -11.15625 C 16.566406 -11.363281 16.390625 -11.6875 16.296875 -12.125 L 15.953125 -13.6875 C 15.890625 -13.96875 15.8125 -14.15625 15.71875 -14.25 C 15.625 -14.34375 15.40625 -14.398438 15.0625 -14.421875 L 12.359375 -14.59375 L 10.515625 -9.328125 L 11.03125 -9.296875 C 11.28125 -9.285156 11.503906 -9.3125 11.703125 -9.375 C 11.898438 -9.4375 12.113281 -9.554688 12.34375 -9.734375 L 13.203125 -10.390625 C 13.523438 -10.640625 13.8125 -10.816406 14.0625 -10.921875 C 14.3125 -11.023438 14.570312 -11.066406 14.84375 -11.046875 C 15.1875 -11.023438 15.460938 -10.90625 15.671875 -10.6875 C 15.890625 -10.476562 15.988281 -10.195312 15.96875 -9.84375 C 15.957031 -9.695312 15.921875 -9.53125 15.859375 -9.34375 L 14.40625 -5.28125 C 14.082031 -4.414062 13.570312 -4.003906 12.875 -4.046875 C 12.300781 -4.078125 11.867188 -4.398438 11.578125 -5.015625 L 11.15625 -5.96875 C 11.039062 -6.226562 10.929688 -6.394531 10.828125 -6.46875 C 10.722656 -6.550781 10.5625 -6.597656 10.34375 -6.609375 L 9.5625 -6.65625 L 8.171875 -2.71875 C 8.128906 -2.601562 8.101562 -2.457031 8.09375 -2.28125 C 8.070312 -2.03125 8.113281 -1.816406 8.21875 -1.640625 C 8.332031 -1.472656 8.5 -1.289062 8.71875 -1.09375 C 8.914062 -0.914062 9.046875 -0.773438 9.109375 -0.671875 C 9.171875 -0.566406 9.195312 -0.445312 9.1875 -0.3125 C 9.164062 0.0195312 9.007812 0.238281 8.71875 0.34375 C 8.425781 0.445312 8 0.484375 7.4375 0.453125 L 0.65625 0.046875 C 0.1875 0.015625 -0.160156 -0.09375 -0.390625 -0.28125 C -0.617188 -0.46875 -0.6875 -0.710938 -0.59375 -1.015625 C -0.539062 -1.171875 -0.460938 -1.296875 -0.359375 -1.390625 C -0.253906 -1.484375 -0.0976562 -1.585938 0.109375 -1.703125 C 0.421875 -1.867188 0.671875 -2.046875 0.859375 -2.234375 C 1.054688 -2.421875 1.222656 -2.71875 1.359375 -3.125 L 5.390625 -14.59375 C 5.472656 -14.8125 5.519531 -15.019531 5.53125 -15.21875 C 5.550781 -15.4375 5.53125 -15.617188 5.46875 -15.765625 C 5.414062 -15.921875 5.332031 -16.082031 5.21875 -16.25 C 5.082031 -16.5 5.015625 -16.695312 5.015625 -16.84375 C 5.023438 -16.894531 5.054688 -16.988281 5.109375 -17.125 C 5.179688 -17.351562 5.34375 -17.507812 5.59375 -17.59375 C 5.851562 -17.6875 6.226562 -17.71875 6.71875 -17.6875 Z M 18.734375 -16.953125" transform="translate(154.752 57.412)"/></g></g></g><g fill="#545454" fill-opacity=".741"><g><g><path d="M 16.75 -3.046875 C 17.25 -2.921875 17.601562 -2.722656 17.8125 -2.453125 C 18.019531 -2.191406 18.078125 -1.875 17.984375 -1.5 C 17.941406 -1.34375 17.867188 -1.175781 17.765625 -1 L 16.125 1.859375 C 15.707031 2.566406 15.253906 3.015625 14.765625 3.203125 C 14.285156 3.398438 13.644531 3.398438 12.84375 3.203125 L 0.46875 0.109375 C 0.101562 0.0234375 -0.160156 -0.0976562 -0.328125 -0.265625 C -0.503906 -0.441406 -0.566406 -0.640625 -0.515625 -0.859375 C -0.484375 -0.960938 -0.429688 -1.070312 -0.359375 -1.1875 C -0.265625 -1.3125 -0.144531 -1.40625 0 -1.46875 C 0.144531 -1.53125 0.296875 -1.585938 0.453125 -1.640625 C 0.785156 -1.753906 1.0625 -1.878906 1.28125 -2.015625 C 1.5 -2.148438 1.726562 -2.414062 1.96875 -2.8125 L 7.984375 -13.359375 C 8.117188 -13.554688 8.210938 -13.757812 8.265625 -13.96875 C 8.304688 -14.164062 8.316406 -14.335938 8.296875 -14.484375 C 8.273438 -14.628906 8.226562 -14.804688 8.15625 -15.015625 C 8.050781 -15.273438 8.019531 -15.476562 8.0625 -15.625 C 8.070312 -15.664062 8.109375 -15.757812 8.171875 -15.90625 C 8.304688 -16.101562 8.503906 -16.222656 8.765625 -16.265625 C 9.023438 -16.316406 9.394531 -16.28125 9.875 -16.15625 L 16.0625 -14.609375 C 16.4375 -14.515625 16.707031 -14.382812 16.875 -14.21875 C 17.050781 -14.050781 17.113281 -13.863281 17.0625 -13.65625 C 17.039062 -13.5625 16.988281 -13.457031 16.90625 -13.34375 C 16.8125 -13.21875 16.707031 -13.117188 16.59375 -13.046875 C 16.476562 -12.984375 16.375 -12.941406 16.28125 -12.921875 C 16.1875 -12.898438 16.117188 -12.875 16.078125 -12.84375 C 15.753906 -12.75 15.476562 -12.628906 15.25 -12.484375 C 15.03125 -12.335938 14.804688 -12.082031 14.578125 -11.71875 L 8.21875 -0.640625 L 9.859375 -0.234375 C 10.265625 -0.128906 10.628906 -0.109375 10.953125 -0.171875 C 11.273438 -0.234375 11.640625 -0.421875 12.046875 -0.734375 L 14.421875 -2.453125 C 14.847656 -2.753906 15.234375 -2.953125 15.578125 -3.046875 C 15.929688 -3.148438 16.320312 -3.148438 16.75 -3.046875 Z M 16.75 -3.046875" transform="translate(174.214 58.793)"/></g></g></g><g fill="#545454" fill-opacity=".741"><g><g><path d="M 18.125 -11.921875 C 18.476562 -11.773438 18.726562 -11.601562 18.875 -11.40625 C 19.019531 -11.21875 19.050781 -11.023438 18.96875 -10.828125 C 18.9375 -10.734375 18.859375 -10.644531 18.734375 -10.5625 C 18.640625 -10.457031 18.523438 -10.375 18.390625 -10.3125 C 18.265625 -10.257812 18.15625 -10.226562 18.0625 -10.21875 C 17.976562 -10.21875 17.910156 -10.207031 17.859375 -10.1875 C 17.523438 -10.144531 17.238281 -10.066406 17 -9.953125 C 16.757812 -9.835938 16.5 -9.617188 16.21875 -9.296875 L 8.640625 0.1875 C 8.484375 0.375 8.363281 0.570312 8.28125 0.78125 C 8.195312 0.96875 8.15625 1.140625 8.15625 1.296875 C 8.15625 1.460938 8.179688 1.644531 8.234375 1.84375 C 8.296875 2.113281 8.300781 2.316406 8.25 2.453125 C 8.226562 2.492188 8.171875 2.570312 8.078125 2.6875 C 7.898438 2.894531 7.675781 2.992188 7.40625 2.984375 C 7.144531 2.972656 6.78125 2.867188 6.3125 2.671875 L 0.453125 0.1875 C 0.0976562 0.0390625 -0.144531 -0.128906 -0.28125 -0.328125 C -0.425781 -0.523438 -0.453125 -0.722656 -0.359375 -0.921875 C -0.316406 -1.035156 -0.25 -1.140625 -0.15625 -1.234375 C -0.0078125 -1.378906 0.15625 -1.46875 0.34375 -1.5 C 0.53125 -1.539062 0.648438 -1.554688 0.703125 -1.546875 C 1.035156 -1.617188 1.320312 -1.703125 1.5625 -1.796875 C 1.800781 -1.898438 2.0625 -2.128906 2.34375 -2.484375 L 9.953125 -11.953125 C 10.117188 -12.140625 10.242188 -12.332031 10.328125 -12.53125 C 10.398438 -12.707031 10.429688 -12.867188 10.421875 -13.015625 C 10.421875 -13.171875 10.398438 -13.351562 10.359375 -13.5625 C 10.316406 -13.84375 10.320312 -14.050781 10.375 -14.1875 C 10.394531 -14.238281 10.445312 -14.328125 10.53125 -14.453125 C 10.6875 -14.628906 10.894531 -14.710938 11.15625 -14.703125 C 11.425781 -14.703125 11.796875 -14.601562 12.265625 -14.40625 Z M 18.125 -11.921875" transform="translate(193.72 64.133)"/></g></g></g><g fill="#545454" fill-opacity=".741"><g><g><path d="M 29.296875 -2.5 C 29.648438 -2.269531 29.875 -2.03125 29.96875 -1.78125 C 30.070312 -1.53125 30.050781 -1.300781 29.90625 -1.09375 C 29.84375 -1 29.789062 -0.9375 29.75 -0.90625 C 29.582031 -0.738281 29.394531 -0.648438 29.1875 -0.640625 C 28.988281 -0.628906 28.703125 -0.660156 28.328125 -0.734375 C 27.785156 -0.828125 27.289062 -0.890625 26.84375 -0.921875 C 26.40625 -0.953125 25.863281 -0.929688 25.21875 -0.859375 L 18.203125 0.046875 L 16.921875 6.859375 C 16.828125 7.316406 16.8125 7.707031 16.875 8.03125 C 16.945312 8.351562 17.0625 8.691406 17.21875 9.046875 C 17.300781 9.328125 17.351562 9.535156 17.375 9.671875 C 17.40625 9.804688 17.367188 9.945312 17.265625 10.09375 C 17.085938 10.375 16.863281 10.515625 16.59375 10.515625 C 16.332031 10.523438 15.988281 10.390625 15.5625 10.109375 L 9.453125 6.140625 C 9.066406 5.890625 8.816406 5.640625 8.703125 5.390625 C 8.597656 5.140625 8.613281 4.90625 8.75 4.6875 C 8.8125 4.59375 8.863281 4.53125 8.90625 4.5 C 9.007812 4.40625 9.125 4.335938 9.25 4.296875 C 9.382812 4.265625 9.515625 4.242188 9.640625 4.234375 C 9.804688 4.203125 9.953125 4.160156 10.078125 4.109375 C 10.203125 4.066406 10.316406 3.960938 10.421875 3.796875 C 10.585938 3.546875 10.722656 3.160156 10.828125 2.640625 L 11.28125 0.1875 L 7.984375 0.78125 C 7.296875 0.875 6.851562 1.078125 6.65625 1.390625 C 6.5625 1.523438 6.515625 1.660156 6.515625 1.796875 C 6.523438 1.929688 6.550781 2.113281 6.59375 2.34375 C 6.632812 2.570312 6.648438 2.765625 6.640625 2.921875 C 6.640625 3.085938 6.570312 3.226562 6.4375 3.34375 C 6.226562 3.53125 6 3.601562 5.75 3.5625 C 5.507812 3.519531 5.179688 3.363281 4.765625 3.09375 L 0.03125 0.015625 C -0.320312 -0.210938 -0.546875 -0.445312 -0.640625 -0.6875 C -0.742188 -0.9375 -0.726562 -1.171875 -0.59375 -1.390625 C -0.53125 -1.484375 -0.472656 -1.546875 -0.421875 -1.578125 C -0.253906 -1.742188 -0.0703125 -1.832031 0.125 -1.84375 C 0.332031 -1.851562 0.625 -1.816406 1 -1.734375 C 1.539062 -1.640625 2.03125 -1.578125 2.46875 -1.546875 C 2.914062 -1.523438 3.460938 -1.554688 4.109375 -1.640625 L 11.8125 -2.65625 L 12.984375 -8.9375 C 13.078125 -9.40625 13.09375 -9.796875 13.03125 -10.109375 C 12.96875 -10.429688 12.859375 -10.773438 12.703125 -11.140625 C 12.609375 -11.410156 12.546875 -11.613281 12.515625 -11.75 C 12.492188 -11.882812 12.535156 -12.03125 12.640625 -12.1875 C 12.816406 -12.457031 13.035156 -12.597656 13.296875 -12.609375 C 13.566406 -12.617188 13.914062 -12.488281 14.34375 -12.21875 L 20.453125 -8.25 C 20.847656 -7.988281 21.097656 -7.726562 21.203125 -7.46875 C 21.316406 -7.21875 21.300781 -6.988281 21.15625 -6.78125 C 21.09375 -6.6875 21.039062 -6.625 21 -6.59375 C 20.90625 -6.507812 20.789062 -6.453125 20.65625 -6.421875 C 20.53125 -6.390625 20.410156 -6.363281 20.296875 -6.34375 C 20.109375 -6.320312 19.953125 -6.28125 19.828125 -6.21875 C 19.703125 -6.164062 19.585938 -6.054688 19.484375 -5.890625 C 19.316406 -5.648438 19.179688 -5.265625 19.078125 -4.734375 L 18.734375 -2.796875 L 21.34375 -3.265625 C 22.050781 -3.367188 22.5 -3.566406 22.6875 -3.859375 C 22.769531 -3.984375 22.8125 -4.117188 22.8125 -4.265625 C 22.8125 -4.421875 22.78125 -4.601562 22.71875 -4.8125 C 22.71875 -4.875 22.707031 -4.976562 22.6875 -5.125 C 22.664062 -5.269531 22.671875 -5.398438 22.703125 -5.515625 C 22.734375 -5.640625 22.789062 -5.738281 22.875 -5.8125 C 23.082031 -6.007812 23.3125 -6.085938 23.5625 -6.046875 C 23.8125 -6.003906 24.144531 -5.847656 24.5625 -5.578125 Z M 29.296875 -2.5" transform="translate(206.21 69.142)"/></g></g></g><g fill="#FFF"><g><g><path d="M 2.34375 -9.15625 C 1.988281 -7.675781 1.398438 -6.410156 0.578125 -5.359375 C -0.242188 -4.304688 -1.269531 -3.554688 -2.5 -3.109375 C -3.738281 -2.671875 -5.113281 -2.628906 -6.625 -2.984375 C -7.675781 -3.234375 -8.773438 -3.695312 -9.921875 -4.375 C -12.367188 -5.800781 -13.976562 -7.46875 -14.75 -9.375 C -15.53125 -11.289062 -15.703125 -13.179688 -15.265625 -15.046875 C -15.023438 -16.046875 -14.664062 -16.894531 -14.1875 -17.59375 C -13.707031 -18.300781 -13.101562 -18.910156 -12.375 -19.421875 L -12.765625 -20.28125 C -13.015625 -20.84375 -13.171875 -21.300781 -13.234375 -21.65625 C -13.304688 -22.019531 -13.296875 -22.40625 -13.203125 -22.8125 C -13.097656 -23.25 -12.914062 -23.570312 -12.65625 -23.78125 C -12.40625 -24 -12.09375 -24.0625 -11.71875 -23.96875 C -11.519531 -23.925781 -11.335938 -23.847656 -11.171875 -23.734375 L -7.40625 -21.28125 C -6.96875 -21.007812 -6.675781 -20.742188 -6.53125 -20.484375 C -6.394531 -20.222656 -6.378906 -19.875 -6.484375 -19.4375 C -6.585938 -18.976562 -6.835938 -18.640625 -7.234375 -18.421875 C -7.628906 -18.210938 -8.265625 -18.015625 -9.140625 -17.828125 C -10.054688 -17.597656 -10.675781 -17.378906 -11 -17.171875 C -11.332031 -16.972656 -11.5625 -16.625 -11.6875 -16.125 C -11.851562 -15.394531 -11.570312 -14.59375 -10.84375 -13.71875 C -10.125 -12.84375 -8.9375 -11.914062 -7.28125 -10.9375 C -5.894531 -10.132812 -4.707031 -9.613281 -3.71875 -9.375 C -2.832031 -9.164062 -2.132812 -9.175781 -1.625 -9.40625 C -1.125 -9.644531 -0.804688 -10.046875 -0.671875 -10.609375 C -0.472656 -11.429688 -0.492188 -12.15625 -0.734375 -12.78125 C -0.972656 -13.40625 -1.335938 -14.078125 -1.828125 -14.796875 C -2.140625 -15.234375 -2.359375 -15.582031 -2.484375 -15.84375 C -2.617188 -16.113281 -2.660156 -16.367188 -2.609375 -16.609375 C -2.535156 -16.921875 -2.296875 -17.21875 -1.890625 -17.5 C -1.492188 -17.78125 -1.140625 -17.875 -0.828125 -17.78125 C -0.441406 -17.707031 0.078125 -17.253906 0.734375 -16.421875 C 1.398438 -15.585938 1.914062 -14.523438 2.28125 -13.234375 C 2.65625 -11.953125 2.675781 -10.59375 2.34375 -9.15625 Z M 2.34375 -9.15625" transform="translate(46.751 148.268)"/></g></g></g><g fill="#FFF"><g><g><path d="M -11.21875 -19.734375 C -10.257812 -21.804688 -9.019531 -23.195312 -7.5 -23.90625 C -5.988281 -24.613281 -4.316406 -24.546875 -2.484375 -23.703125 C -1.609375 -23.296875 -0.734375 -22.726562 0.140625 -22 C 1.742188 -20.65625 2.945312 -19.171875 3.75 -17.546875 C 4.5625 -15.929688 4.960938 -14.253906 4.953125 -12.515625 C 4.953125 -10.785156 4.566406 -9.085938 3.796875 -7.421875 C 2.847656 -5.367188 1.613281 -3.984375 0.09375 -3.265625 C -1.425781 -2.554688 -3.101562 -2.628906 -4.9375 -3.484375 C -5.769531 -3.867188 -6.660156 -4.453125 -7.609375 -5.234375 C -9.210938 -6.546875 -10.410156 -8.003906 -11.203125 -9.609375 C -11.992188 -11.222656 -12.390625 -12.890625 -12.390625 -14.609375 C -12.390625 -16.328125 -12 -18.035156 -11.21875 -19.734375 Z M -9 -18.1875 C -9.226562 -17.695312 -9.234375 -17.160156 -9.015625 -16.578125 C -8.804688 -15.992188 -8.34375 -15.300781 -7.625 -14.5 C -6.914062 -13.707031 -5.867188 -12.722656 -4.484375 -11.546875 C -2.492188 -9.835938 -1.0625 -8.78125 -0.1875 -8.375 C 0.320312 -8.132812 0.726562 -8.050781 1.03125 -8.125 C 1.34375 -8.195312 1.585938 -8.425781 1.765625 -8.8125 C 1.992188 -9.300781 2 -9.835938 1.78125 -10.421875 C 1.5625 -11.015625 1.097656 -11.703125 0.390625 -12.484375 C -0.304688 -13.265625 -1.332031 -14.25 -2.6875 -15.4375 C -4.644531 -17.125 -6.082031 -18.179688 -7 -18.609375 C -7.53125 -18.847656 -7.953125 -18.929688 -8.265625 -18.859375 C -8.578125 -18.785156 -8.820312 -18.5625 -9 -18.1875 Z M -9 -18.1875" transform="translate(51.786 127.83)"/></g></g></g><g fill="#FFF"><g><g><path d="M 4.046875 -34.015625 C 4.296875 -34.316406 4.53125 -34.507812 4.75 -34.59375 C 4.976562 -34.6875 5.175781 -34.664062 5.34375 -34.53125 C 5.414062 -34.46875 5.484375 -34.375 5.546875 -34.25 C 5.648438 -34.09375 5.703125 -33.953125 5.703125 -33.828125 C 5.703125 -33.703125 5.691406 -33.523438 5.671875 -33.296875 C 5.597656 -32.960938 5.585938 -32.664062 5.640625 -32.40625 C 5.703125 -32.144531 5.847656 -31.84375 6.078125 -31.5 L 13.15625 -21.640625 C 13.28125 -21.429688 13.429688 -21.257812 13.609375 -21.125 C 13.753906 -21 13.898438 -20.921875 14.046875 -20.890625 C 14.203125 -20.859375 14.378906 -20.820312 14.578125 -20.78125 C 14.691406 -20.78125 14.804688 -20.773438 14.921875 -20.765625 C 15.035156 -20.753906 15.140625 -20.710938 15.234375 -20.640625 C 15.253906 -20.617188 15.3125 -20.539062 15.40625 -20.40625 C 15.53125 -20.207031 15.550781 -19.972656 15.46875 -19.703125 C 15.394531 -19.429688 15.207031 -19.101562 14.90625 -18.71875 L 10.921875 -13.734375 C 10.691406 -13.441406 10.460938 -13.253906 10.234375 -13.171875 C 10.015625 -13.085938 9.816406 -13.113281 9.640625 -13.25 C 9.554688 -13.320312 9.484375 -13.414062 9.421875 -13.53125 C 9.347656 -13.65625 9.300781 -13.785156 9.28125 -13.921875 C 9.269531 -14.066406 9.273438 -14.179688 9.296875 -14.265625 C 9.316406 -14.359375 9.328125 -14.4375 9.328125 -14.5 C 9.367188 -14.8125 9.367188 -15.101562 9.328125 -15.375 C 9.285156 -15.644531 9.144531 -15.957031 8.90625 -16.3125 L 4.46875 -22.484375 L 6.890625 -11.578125 C 7.078125 -10.679688 7.160156 -10.007812 7.140625 -9.5625 C 7.128906 -9.125 6.984375 -8.734375 6.703125 -8.390625 C 6.421875 -8.046875 6.097656 -7.867188 5.734375 -7.859375 C 5.367188 -7.847656 4.859375 -7.96875 4.203125 -8.21875 L -3.921875 -11.453125 L 0.3125 -5.515625 C 0.445312 -5.316406 0.597656 -5.144531 0.765625 -5 C 0.929688 -4.875 1.09375 -4.789062 1.25 -4.75 C 1.40625 -4.707031 1.582031 -4.679688 1.78125 -4.671875 C 2.0625 -4.660156 2.257812 -4.609375 2.375 -4.515625 C 2.40625 -4.492188 2.46875 -4.421875 2.5625 -4.296875 C 2.71875 -4.085938 2.753906 -3.851562 2.671875 -3.59375 C 2.585938 -3.332031 2.390625 -3 2.078125 -2.59375 L 0.671875 -0.84375 C 0.441406 -0.550781 0.210938 -0.363281 -0.015625 -0.28125 C -0.242188 -0.195312 -0.441406 -0.222656 -0.609375 -0.359375 C -0.703125 -0.429688 -0.78125 -0.519531 -0.84375 -0.625 C -0.957031 -0.8125 -1.003906 -1 -0.984375 -1.1875 C -0.972656 -1.382812 -0.957031 -1.503906 -0.9375 -1.546875 C -0.90625 -1.890625 -0.90625 -2.191406 -0.9375 -2.453125 C -0.96875 -2.710938 -1.113281 -3.03125 -1.375 -3.40625 L -8.46875 -13.28125 L -9.859375 -13.84375 C -10.128906 -13.945312 -10.363281 -14.082031 -10.5625 -14.25 C -10.8125 -14.445312 -10.925781 -14.671875 -10.90625 -14.921875 C -10.894531 -15.171875 -10.753906 -15.460938 -10.484375 -15.796875 L -7.875 -19.078125 C -7.53125 -19.503906 -7.179688 -19.75 -6.828125 -19.8125 C -6.472656 -19.875 -6.023438 -19.78125 -5.484375 -19.53125 L 3.25 -16.046875 L 0.6875 -27.5 C 0.53125 -28.21875 0.515625 -28.8125 0.640625 -29.28125 C 0.773438 -29.757812 1.078125 -30.285156 1.546875 -30.859375 Z M 4.046875 -34.015625" transform="translate(60.783 107.808)"/></g></g></g><g fill="#FFF"><g><g><path d="M 2.8125 -25.140625 C 3.34375 -25.546875 3.84375 -25.742188 4.3125 -25.734375 C 4.78125 -25.734375 5.175781 -25.535156 5.5 -25.140625 C 5.644531 -24.941406 5.757812 -24.734375 5.84375 -24.515625 L 6.859375 -22.078125 C 7.054688 -21.617188 7.113281 -21.238281 7.03125 -20.9375 C 6.957031 -20.644531 6.742188 -20.359375 6.390625 -20.078125 C 6.046875 -19.804688 5.71875 -19.664062 5.40625 -19.65625 C 5.101562 -19.65625 4.769531 -19.789062 4.40625 -20.0625 L 3.109375 -21.015625 C 2.847656 -21.210938 2.632812 -21.316406 2.46875 -21.328125 C 2.300781 -21.335938 2.070312 -21.234375 1.78125 -21.015625 L -0.453125 -19.25 L 1.4375 -14.625 L 2.375 -15.359375 C 2.476562 -15.429688 2.5625 -15.601562 2.625 -15.875 L 2.84375 -17.09375 C 2.90625 -17.4375 2.976562 -17.710938 3.0625 -17.921875 C 3.15625 -18.140625 3.316406 -18.335938 3.546875 -18.515625 C 3.796875 -18.710938 4.054688 -18.804688 4.328125 -18.796875 C 4.609375 -18.796875 4.832031 -18.6875 5 -18.46875 C 5.039062 -18.414062 5.097656 -18.320312 5.171875 -18.1875 L 6.609375 -14.53125 C 6.765625 -14.144531 6.796875 -13.796875 6.703125 -13.484375 C 6.617188 -13.179688 6.453125 -12.929688 6.203125 -12.734375 C 5.804688 -12.429688 5.347656 -12.410156 4.828125 -12.671875 L 3.890625 -13.109375 C 3.617188 -13.253906 3.378906 -13.242188 3.171875 -13.078125 L 2.328125 -12.421875 L 4.609375 -6.921875 L 6.484375 -8.390625 C 6.753906 -8.609375 6.953125 -8.847656 7.078125 -9.109375 C 7.203125 -9.367188 7.28125 -9.726562 7.3125 -10.1875 L 7.484375 -12.59375 C 7.515625 -13.019531 7.59375 -13.367188 7.71875 -13.640625 C 7.851562 -13.910156 8.066406 -14.160156 8.359375 -14.390625 C 8.671875 -14.640625 8.984375 -14.769531 9.296875 -14.78125 C 9.617188 -14.789062 9.890625 -14.65625 10.109375 -14.375 C 10.203125 -14.257812 10.28125 -14.101562 10.34375 -13.90625 L 11.40625 -11.265625 C 11.675781 -10.609375 11.742188 -10.054688 11.609375 -9.609375 C 11.484375 -9.160156 11.140625 -8.710938 10.578125 -8.265625 L 0.375 -0.296875 C 0.0820312 -0.0664062 -0.179688 0.0625 -0.421875 0.09375 C -0.660156 0.125 -0.847656 0.0546875 -0.984375 -0.109375 C -1.046875 -0.203125 -1.101562 -0.316406 -1.15625 -0.453125 C -1.21875 -0.660156 -1.21875 -0.851562 -1.15625 -1.03125 C -1.101562 -1.21875 -1.054688 -1.328125 -1.015625 -1.359375 C -0.910156 -1.679688 -0.84375 -1.96875 -0.8125 -2.21875 C -0.789062 -2.476562 -0.863281 -2.820312 -1.03125 -3.25 L -5.609375 -14.53125 C -5.691406 -14.75 -5.789062 -14.9375 -5.90625 -15.09375 C -6.039062 -15.257812 -6.179688 -15.382812 -6.328125 -15.46875 C -6.472656 -15.550781 -6.644531 -15.609375 -6.84375 -15.640625 C -7.113281 -15.722656 -7.296875 -15.828125 -7.390625 -15.953125 C -7.421875 -15.984375 -7.460938 -16.066406 -7.515625 -16.203125 C -7.609375 -16.429688 -7.582031 -16.664062 -7.4375 -16.90625 C -7.300781 -17.15625 -7.039062 -17.429688 -6.65625 -17.734375 Z M -3.421875 -25.859375 C -3.546875 -26.703125 -3.53125 -27.398438 -3.375 -27.953125 C -3.21875 -28.515625 -2.890625 -28.992188 -2.390625 -29.390625 C -1.941406 -29.734375 -1.5 -29.890625 -1.0625 -29.859375 C -0.625 -29.828125 -0.25 -29.617188 0.0625 -29.234375 C 0.394531 -28.796875 0.539062 -28.304688 0.5 -27.765625 C 0.457031 -27.234375 0.242188 -26.5625 -0.140625 -25.75 L -1.296875 -23.40625 C -1.484375 -23.082031 -1.664062 -22.847656 -1.84375 -22.703125 C -2.019531 -22.566406 -2.191406 -22.5 -2.359375 -22.5 C -2.535156 -22.5 -2.691406 -22.585938 -2.828125 -22.765625 C -2.960938 -22.941406 -3.0625 -23.210938 -3.125 -23.578125 Z M -3.421875 -25.859375" transform="translate(80.17 84.832)"/></g></g></g><g fill="#FFF"><g><g><path d="M 3.578125 -21.953125 C 6.003906 -23.160156 8.0625 -23.601562 9.75 -23.28125 C 11.445312 -22.957031 12.742188 -21.894531 13.640625 -20.09375 C 14.085938 -19.207031 14.4375 -18.101562 14.6875 -16.78125 C 15.09375 -14.632812 15.113281 -12.785156 14.75 -11.234375 C 14.394531 -9.691406 13.597656 -8.296875 12.359375 -7.046875 C 11.128906 -5.804688 9.351562 -4.625 7.03125 -3.5 L 0.421875 -0.25 C 0.0859375 -0.0820312 -0.195312 -0.00390625 -0.4375 -0.015625 C -0.6875 -0.0351562 -0.859375 -0.144531 -0.953125 -0.34375 C -0.992188 -0.4375 -1.023438 -0.550781 -1.046875 -0.6875 C -1.066406 -0.851562 -1.046875 -0.992188 -0.984375 -1.109375 C -0.929688 -1.222656 -0.84375 -1.375 -0.71875 -1.5625 C -0.539062 -1.851562 -0.414062 -2.125 -0.34375 -2.375 C -0.28125 -2.625 -0.289062 -2.96875 -0.375 -3.40625 L -2.59375 -15.328125 C -2.632812 -15.566406 -2.703125 -15.785156 -2.796875 -15.984375 C -2.890625 -16.160156 -2.992188 -16.296875 -3.109375 -16.390625 C -3.222656 -16.484375 -3.367188 -16.582031 -3.546875 -16.6875 C -3.796875 -16.832031 -3.957031 -16.96875 -4.03125 -17.09375 C -4.050781 -17.144531 -4.078125 -17.242188 -4.109375 -17.390625 C -4.148438 -17.628906 -4.082031 -17.847656 -3.90625 -18.046875 C -3.738281 -18.253906 -3.425781 -18.472656 -2.96875 -18.703125 Z M 8.203125 -14.21875 C 7.878906 -15.945312 7.5 -17.25 7.0625 -18.125 C 6.632812 -18.988281 6.160156 -19.492188 5.640625 -19.640625 C 5.128906 -19.785156 4.539062 -19.695312 3.875 -19.375 L 3.34375 -19.109375 L 5.9375 -5.671875 L 6.515625 -5.96875 C 7.265625 -6.332031 7.8125 -6.800781 8.15625 -7.375 C 8.5 -7.945312 8.679688 -8.765625 8.703125 -9.828125 C 8.722656 -10.898438 8.554688 -12.363281 8.203125 -14.21875 Z M 8.203125 -14.21875" transform="translate(96.354 72.291)"/></g></g></g><g fill="#FFF"><g><g><path d="M 6.359375 -20.765625 C 6.722656 -20.867188 7.023438 -20.894531 7.265625 -20.84375 C 7.503906 -20.789062 7.65625 -20.65625 7.71875 -20.4375 C 7.738281 -20.351562 7.738281 -20.234375 7.71875 -20.078125 C 7.707031 -19.929688 7.664062 -19.796875 7.59375 -19.671875 C 7.53125 -19.554688 7.460938 -19.46875 7.390625 -19.40625 C 7.328125 -19.34375 7.285156 -19.285156 7.265625 -19.234375 C 7.035156 -19.003906 6.863281 -18.765625 6.75 -18.515625 C 6.632812 -18.265625 6.570312 -17.925781 6.5625 -17.5 L 6.765625 -5.359375 C 6.773438 -5.109375 6.8125 -4.878906 6.875 -4.671875 C 6.9375 -4.472656 7.015625 -4.3125 7.109375 -4.1875 C 7.210938 -4.070312 7.347656 -3.953125 7.515625 -3.828125 C 7.742188 -3.660156 7.878906 -3.503906 7.921875 -3.359375 C 7.929688 -3.328125 7.9375 -3.234375 7.9375 -3.078125 C 7.945312 -2.804688 7.84375 -2.585938 7.625 -2.421875 C 7.414062 -2.265625 7.066406 -2.113281 6.578125 -1.96875 L 0.46875 -0.140625 C 0.101562 -0.0351562 -0.191406 -0.0078125 -0.421875 -0.0625 C -0.660156 -0.125 -0.8125 -0.257812 -0.875 -0.46875 C -0.90625 -0.582031 -0.910156 -0.707031 -0.890625 -0.84375 C -0.890625 -1.050781 -0.828125 -1.226562 -0.703125 -1.375 C -0.578125 -1.519531 -0.492188 -1.609375 -0.453125 -1.640625 C -0.234375 -1.898438 -0.0664062 -2.144531 0.046875 -2.375 C 0.160156 -2.601562 0.21875 -2.945312 0.21875 -3.40625 L 0.046875 -15.546875 C 0.0546875 -15.785156 0.03125 -16.007812 -0.03125 -16.21875 C -0.09375 -16.40625 -0.171875 -16.554688 -0.265625 -16.671875 C -0.367188 -16.785156 -0.5 -16.914062 -0.65625 -17.0625 C -0.882812 -17.25 -1.019531 -17.410156 -1.0625 -17.546875 C -1.070312 -17.597656 -1.082031 -17.691406 -1.09375 -17.828125 C -1.082031 -18.066406 -0.972656 -18.273438 -0.765625 -18.453125 C -0.566406 -18.628906 -0.222656 -18.789062 0.265625 -18.9375 Z M 6.359375 -20.765625" transform="translate(117.572 62.454)"/></g></g></g><g fill="#FFF"><g><g><path d="M 16.015625 -5.28125 C 15.972656 -5.050781 15.96875 -4.820312 16 -4.59375 C 16.019531 -4.394531 16.066406 -4.226562 16.140625 -4.09375 C 16.210938 -3.96875 16.285156 -3.867188 16.359375 -3.796875 C 16.429688 -3.722656 16.476562 -3.664062 16.5 -3.625 C 16.707031 -3.46875 16.820312 -3.300781 16.84375 -3.125 C 16.851562 -3.09375 16.847656 -3 16.828125 -2.84375 C 16.785156 -2.59375 16.648438 -2.398438 16.421875 -2.265625 C 16.191406 -2.140625 15.828125 -2.039062 15.328125 -1.96875 L 8.953125 -1.15625 C 8.578125 -1.101562 8.273438 -1.125 8.046875 -1.21875 C 7.828125 -1.320312 7.703125 -1.484375 7.671875 -1.703125 C 7.660156 -1.816406 7.675781 -1.9375 7.71875 -2.0625 C 7.757812 -2.207031 7.820312 -2.328125 7.90625 -2.421875 C 8 -2.515625 8.125 -2.628906 8.28125 -2.765625 C 8.539062 -2.960938 8.75 -3.171875 8.90625 -3.390625 C 9.0625 -3.609375 9.175781 -3.953125 9.25 -4.421875 L 9.65625 -6.8125 L 5.453125 -6.28125 L 4.90625 -4.65625 C 4.695312 -3.945312 4.613281 -3.40625 4.65625 -3.03125 C 4.6875 -2.820312 4.742188 -2.65625 4.828125 -2.53125 C 4.921875 -2.40625 5.050781 -2.28125 5.21875 -2.15625 C 5.363281 -2.019531 5.460938 -1.90625 5.515625 -1.8125 C 5.578125 -1.71875 5.597656 -1.59375 5.578125 -1.4375 C 5.546875 -1.15625 5.421875 -0.945312 5.203125 -0.8125 C 4.992188 -0.6875 4.648438 -0.59375 4.171875 -0.53125 L 0.15625 -0.015625 C -0.25 0.0351562 -0.566406 0 -0.796875 -0.125 C -1.035156 -0.25 -1.171875 -0.441406 -1.203125 -0.703125 C -1.234375 -0.984375 -1.160156 -1.222656 -0.984375 -1.421875 C -0.804688 -1.617188 -0.519531 -1.84375 -0.125 -2.09375 C 0.375 -2.4375 0.765625 -2.753906 1.046875 -3.046875 C 1.335938 -3.347656 1.570312 -3.75 1.75 -4.25 L 5.265625 -14.78125 C 5.804688 -16.40625 6.523438 -17.628906 7.421875 -18.453125 C 8.316406 -19.273438 9.582031 -19.789062 11.21875 -20 C 13.039062 -20.238281 14.503906 -20.050781 15.609375 -19.4375 C 16.710938 -18.820312 17.347656 -17.851562 17.515625 -16.53125 C 17.585938 -15.96875 17.570312 -15.378906 17.46875 -14.765625 Z M 10.109375 -9.609375 L 10.921875 -14.53125 C 10.960938 -14.757812 10.96875 -14.988281 10.9375 -15.21875 C 10.894531 -15.5625 10.769531 -15.800781 10.5625 -15.9375 C 10.351562 -16.082031 10.082031 -16.132812 9.75 -16.09375 C 9.3125 -16.03125 8.957031 -15.859375 8.6875 -15.578125 C 8.414062 -15.296875 8.164062 -14.804688 7.9375 -14.109375 L 6.34375 -9.125 Z M 10.109375 -9.609375" transform="translate(130.506 58.469)"/></g></g></g><g fill="#FFF"><g><g><path d="M 18.734375 -16.953125 C 19.398438 -16.910156 19.910156 -16.734375 20.265625 -16.421875 C 20.628906 -16.109375 20.796875 -15.695312 20.765625 -15.1875 C 20.742188 -14.9375 20.691406 -14.695312 20.609375 -14.46875 L 19.75 -11.984375 C 19.582031 -11.535156 19.347656 -11.21875 19.046875 -11.03125 C 18.753906 -10.851562 18.375 -10.78125 17.90625 -10.8125 C 17.445312 -10.84375 17.085938 -10.957031 16.828125 -11.15625 C 16.566406 -11.363281 16.390625 -11.6875 16.296875 -12.125 L 15.953125 -13.6875 C 15.890625 -13.96875 15.8125 -14.15625 15.71875 -14.25 C 15.625 -14.34375 15.40625 -14.398438 15.0625 -14.421875 L 12.359375 -14.59375 L 10.515625 -9.328125 L 11.03125 -9.296875 C 11.28125 -9.285156 11.503906 -9.3125 11.703125 -9.375 C 11.898438 -9.4375 12.113281 -9.554688 12.34375 -9.734375 L 13.203125 -10.390625 C 13.523438 -10.640625 13.8125 -10.816406 14.0625 -10.921875 C 14.3125 -11.023438 14.570312 -11.066406 14.84375 -11.046875 C 15.1875 -11.023438 15.460938 -10.90625 15.671875 -10.6875 C 15.890625 -10.476562 15.988281 -10.195312 15.96875 -9.84375 C 15.957031 -9.695312 15.921875 -9.53125 15.859375 -9.34375 L 14.40625 -5.28125 C 14.082031 -4.414062 13.570312 -4.003906 12.875 -4.046875 C 12.300781 -4.078125 11.867188 -4.398438 11.578125 -5.015625 L 11.15625 -5.96875 C 11.039062 -6.226562 10.929688 -6.394531 10.828125 -6.46875 C 10.722656 -6.550781 10.5625 -6.597656 10.34375 -6.609375 L 9.5625 -6.65625 L 8.171875 -2.71875 C 8.128906 -2.601562 8.101562 -2.457031 8.09375 -2.28125 C 8.070312 -2.03125 8.113281 -1.816406 8.21875 -1.640625 C 8.332031 -1.472656 8.5 -1.289062 8.71875 -1.09375 C 8.914062 -0.914062 9.046875 -0.773438 9.109375 -0.671875 C 9.171875 -0.566406 9.195312 -0.445312 9.1875 -0.3125 C 9.164062 0.0195312 9.007812 0.238281 8.71875 0.34375 C 8.425781 0.445312 8 0.484375 7.4375 0.453125 L 0.65625 0.046875 C 0.1875 0.015625 -0.160156 -0.09375 -0.390625 -0.28125 C -0.617188 -0.46875 -0.6875 -0.710938 -0.59375 -1.015625 C -0.539062 -1.171875 -0.460938 -1.296875 -0.359375 -1.390625 C -0.253906 -1.484375 -0.0976562 -1.585938 0.109375 -1.703125 C 0.421875 -1.867188 0.671875 -2.046875 0.859375 -2.234375 C 1.054688 -2.421875 1.222656 -2.71875 1.359375 -3.125 L 5.390625 -14.59375 C 5.472656 -14.8125 5.519531 -15.019531 5.53125 -15.21875 C 5.550781 -15.4375 5.53125 -15.617188 5.46875 -15.765625 C 5.414062 -15.921875 5.332031 -16.082031 5.21875 -16.25 C 5.082031 -16.5 5.015625 -16.695312 5.015625 -16.84375 C 5.023438 -16.894531 5.054688 -16.988281 5.109375 -17.125 C 5.179688 -17.351562 5.34375 -17.507812 5.59375 -17.59375 C 5.851562 -17.6875 6.226562 -17.71875 6.71875 -17.6875 Z M 18.734375 -16.953125" transform="translate(151.647 56.057)"/></g></g></g><g fill="#FFF"><g><g><path d="M 16.75 -3.046875 C 17.25 -2.921875 17.601562 -2.722656 17.8125 -2.453125 C 18.019531 -2.191406 18.078125 -1.875 17.984375 -1.5 C 17.941406 -1.34375 17.867188 -1.175781 17.765625 -1 L 16.125 1.859375 C 15.707031 2.566406 15.253906 3.015625 14.765625 3.203125 C 14.285156 3.398438 13.644531 3.398438 12.84375 3.203125 L 0.46875 0.109375 C 0.101562 0.0234375 -0.160156 -0.0976562 -0.328125 -0.265625 C -0.503906 -0.441406 -0.566406 -0.640625 -0.515625 -0.859375 C -0.484375 -0.960938 -0.429688 -1.070312 -0.359375 -1.1875 C -0.265625 -1.3125 -0.144531 -1.40625 0 -1.46875 C 0.144531 -1.53125 0.296875 -1.585938 0.453125 -1.640625 C 0.785156 -1.753906 1.0625 -1.878906 1.28125 -2.015625 C 1.5 -2.148438 1.726562 -2.414062 1.96875 -2.8125 L 7.984375 -13.359375 C 8.117188 -13.554688 8.210938 -13.757812 8.265625 -13.96875 C 8.304688 -14.164062 8.316406 -14.335938 8.296875 -14.484375 C 8.273438 -14.628906 8.226562 -14.804688 8.15625 -15.015625 C 8.050781 -15.273438 8.019531 -15.476562 8.0625 -15.625 C 8.070312 -15.664062 8.109375 -15.757812 8.171875 -15.90625 C 8.304688 -16.101562 8.503906 -16.222656 8.765625 -16.265625 C 9.023438 -16.316406 9.394531 -16.28125 9.875 -16.15625 L 16.0625 -14.609375 C 16.4375 -14.515625 16.707031 -14.382812 16.875 -14.21875 C 17.050781 -14.050781 17.113281 -13.863281 17.0625 -13.65625 C 17.039062 -13.5625 16.988281 -13.457031 16.90625 -13.34375 C 16.8125 -13.21875 16.707031 -13.117188 16.59375 -13.046875 C 16.476562 -12.984375 16.375 -12.941406 16.28125 -12.921875 C 16.1875 -12.898438 16.117188 -12.875 16.078125 -12.84375 C 15.753906 -12.75 15.476562 -12.628906 15.25 -12.484375 C 15.03125 -12.335938 14.804688 -12.082031 14.578125 -11.71875 L 8.21875 -0.640625 L 9.859375 -0.234375 C 10.265625 -0.128906 10.628906 -0.109375 10.953125 -0.171875 C 11.273438 -0.234375 11.640625 -0.421875 12.046875 -0.734375 L 14.421875 -2.453125 C 14.847656 -2.753906 15.234375 -2.953125 15.578125 -3.046875 C 15.929688 -3.148438 16.320312 -3.148438 16.75 -3.046875 Z M 16.75 -3.046875" transform="translate(171.108 57.437)"/></g></g></g><g fill="#FFF"><g><g><path d="M 18.125 -11.921875 C 18.476562 -11.773438 18.726562 -11.601562 18.875 -11.40625 C 19.019531 -11.21875 19.050781 -11.023438 18.96875 -10.828125 C 18.9375 -10.734375 18.859375 -10.644531 18.734375 -10.5625 C 18.640625 -10.457031 18.523438 -10.375 18.390625 -10.3125 C 18.265625 -10.257812 18.15625 -10.226562 18.0625 -10.21875 C 17.976562 -10.21875 17.910156 -10.207031 17.859375 -10.1875 C 17.523438 -10.144531 17.238281 -10.066406 17 -9.953125 C 16.757812 -9.835938 16.5 -9.617188 16.21875 -9.296875 L 8.640625 0.1875 C 8.484375 0.375 8.363281 0.570312 8.28125 0.78125 C 8.195312 0.96875 8.15625 1.140625 8.15625 1.296875 C 8.15625 1.460938 8.179688 1.644531 8.234375 1.84375 C 8.296875 2.113281 8.300781 2.316406 8.25 2.453125 C 8.226562 2.492188 8.171875 2.570312 8.078125 2.6875 C 7.898438 2.894531 7.675781 2.992188 7.40625 2.984375 C 7.144531 2.972656 6.78125 2.867188 6.3125 2.671875 L 0.453125 0.1875 C 0.0976562 0.0390625 -0.144531 -0.128906 -0.28125 -0.328125 C -0.425781 -0.523438 -0.453125 -0.722656 -0.359375 -0.921875 C -0.316406 -1.035156 -0.25 -1.140625 -0.15625 -1.234375 C -0.0078125 -1.378906 0.15625 -1.46875 0.34375 -1.5 C 0.53125 -1.539062 0.648438 -1.554688 0.703125 -1.546875 C 1.035156 -1.617188 1.320312 -1.703125 1.5625 -1.796875 C 1.800781 -1.898438 2.0625 -2.128906 2.34375 -2.484375 L 9.953125 -11.953125 C 10.117188 -12.140625 10.242188 -12.332031 10.328125 -12.53125 C 10.398438 -12.707031 10.429688 -12.867188 10.421875 -13.015625 C 10.421875 -13.171875 10.398438 -13.351562 10.359375 -13.5625 C 10.316406 -13.84375 10.320312 -14.050781 10.375 -14.1875 C 10.394531 -14.238281 10.445312 -14.328125 10.53125 -14.453125 C 10.6875 -14.628906 10.894531 -14.710938 11.15625 -14.703125 C 11.425781 -14.703125 11.796875 -14.601562 12.265625 -14.40625 Z M 18.125 -11.921875" transform="translate(190.614 62.778)"/></g></g></g><g fill="#FFF"><g><g><path d="M 29.296875 -2.5 C 29.648438 -2.269531 29.875 -2.03125 29.96875 -1.78125 C 30.070312 -1.53125 30.050781 -1.300781 29.90625 -1.09375 C 29.84375 -1 29.789062 -0.9375 29.75 -0.90625 C 29.582031 -0.738281 29.394531 -0.648438 29.1875 -0.640625 C 28.988281 -0.628906 28.703125 -0.660156 28.328125 -0.734375 C 27.785156 -0.828125 27.289062 -0.890625 26.84375 -0.921875 C 26.40625 -0.953125 25.863281 -0.929688 25.21875 -0.859375 L 18.203125 0.046875 L 16.921875 6.859375 C 16.828125 7.316406 16.8125 7.707031 16.875 8.03125 C 16.945312 8.351562 17.0625 8.691406 17.21875 9.046875 C 17.300781 9.328125 17.351562 9.535156 17.375 9.671875 C 17.40625 9.804688 17.367188 9.945312 17.265625 10.09375 C 17.085938 10.375 16.863281 10.515625 16.59375 10.515625 C 16.332031 10.523438 15.988281 10.390625 15.5625 10.109375 L 9.453125 6.140625 C 9.066406 5.890625 8.816406 5.640625 8.703125 5.390625 C 8.597656 5.140625 8.613281 4.90625 8.75 4.6875 C 8.8125 4.59375 8.863281 4.53125 8.90625 4.5 C 9.007812 4.40625 9.125 4.335938 9.25 4.296875 C 9.382812 4.265625 9.515625 4.242188 9.640625 4.234375 C 9.804688 4.203125 9.953125 4.160156 10.078125 4.109375 C 10.203125 4.066406 10.316406 3.960938 10.421875 3.796875 C 10.585938 3.546875 10.722656 3.160156 10.828125 2.640625 L 11.28125 0.1875 L 7.984375 0.78125 C 7.296875 0.875 6.851562 1.078125 6.65625 1.390625 C 6.5625 1.523438 6.515625 1.660156 6.515625 1.796875 C 6.523438 1.929688 6.550781 2.113281 6.59375 2.34375 C 6.632812 2.570312 6.648438 2.765625 6.640625 2.921875 C 6.640625 3.085938 6.570312 3.226562 6.4375 3.34375 C 6.226562 3.53125 6 3.601562 5.75 3.5625 C 5.507812 3.519531 5.179688 3.363281 4.765625 3.09375 L 0.03125 0.015625 C -0.320312 -0.210938 -0.546875 -0.445312 -0.640625 -0.6875 C -0.742188 -0.9375 -0.726562 -1.171875 -0.59375 -1.390625 C -0.53125 -1.484375 -0.472656 -1.546875 -0.421875 -1.578125 C -0.253906 -1.742188 -0.0703125 -1.832031 0.125 -1.84375 C 0.332031 -1.851562 0.625 -1.816406 1 -1.734375 C 1.539062 -1.640625 2.03125 -1.578125 2.46875 -1.546875 C 2.914062 -1.523438 3.460938 -1.554688 4.109375 -1.640625 L 11.8125 -2.65625 L 12.984375 -8.9375 C 13.078125 -9.40625 13.09375 -9.796875 13.03125 -10.109375 C 12.96875 -10.429688 12.859375 -10.773438 12.703125 -11.140625 C 12.609375 -11.410156 12.546875 -11.613281 12.515625 -11.75 C 12.492188 -11.882812 12.535156 -12.03125 12.640625 -12.1875 C 12.816406 -12.457031 13.035156 -12.597656 13.296875 -12.609375 C 13.566406 -12.617188 13.914062 -12.488281 14.34375 -12.21875 L 20.453125 -8.25 C 20.847656 -7.988281 21.097656 -7.726562 21.203125 -7.46875 C 21.316406 -7.21875 21.300781 -6.988281 21.15625 -6.78125 C 21.09375 -6.6875 21.039062 -6.625 21 -6.59375 C 20.90625 -6.507812 20.789062 -6.453125 20.65625 -6.421875 C 20.53125 -6.390625 20.410156 -6.363281 20.296875 -6.34375 C 20.109375 -6.320312 19.953125 -6.28125 19.828125 -6.21875 C 19.703125 -6.164062 19.585938 -6.054688 19.484375 -5.890625 C 19.316406 -5.648438 19.179688 -5.265625 19.078125 -4.734375 L 18.734375 -2.796875 L 21.34375 -3.265625 C 22.050781 -3.367188 22.5 -3.566406 22.6875 -3.859375 C 22.769531 -3.984375 22.8125 -4.117188 22.8125 -4.265625 C 22.8125 -4.421875 22.78125 -4.601562 22.71875 -4.8125 C 22.71875 -4.875 22.707031 -4.976562 22.6875 -5.125 C 22.664062 -5.269531 22.671875 -5.398438 22.703125 -5.515625 C 22.734375 -5.640625 22.789062 -5.738281 22.875 -5.8125 C 23.082031 -6.007812 23.3125 -6.085938 23.5625 -6.046875 C 23.8125 -6.003906 24.144531 -5.847656 24.5625 -5.578125 Z M 29.296875 -2.5" transform="translate(203.105 67.786)"/></g></g></g><g clip-path="url(#a)"><path fill="#E1E8ED" d="M 226.390625 162.863281 L 226.390625 225.195312 C 226.390625 225.195312 226.390625 240.78125 210.804688 240.78125 L 101.722656 240.78125 C 86.140625 240.78125 86.140625 225.195312 86.140625 225.195312 L 86.140625 217.40625 C 86.140625 217.40625 152.367188 178.445312 226.390625 162.863281 Z M 226.390625 162.863281"/></g><path fill="#EA596E" d="M 213.984375 182.265625 C 215.785156 186.171875 214.074219 190.796875 210.167969 192.601562 L 118.167969 234.980469 C 114.261719 236.777344 109.636719 235.070312 107.835938 231.164062 L 104.574219 224.085938 C 102.773438 220.179688 104.484375 215.550781 108.390625 213.75 L 200.390625 171.375 C 204.300781 169.574219 208.925781 171.289062 210.730469 175.191406 Z M 213.984375 182.265625"/><path fill="#67757F" d="M 185.117188 201.820312 C 183.949219 201.820312 182.761719 201.5625 181.636719 201 L 173.847656 197.105469 C 172.136719 196.246094 170.808594 194.796875 170.09375 193.027344 L 163.542969 176.652344 L 147.164062 170.097656 C 143.171875 168.5 141.226562 163.964844 142.824219 159.96875 C 144.421875 155.972656 148.964844 154.027344 152.953125 155.628906 L 172.4375 163.421875 C 174.414062 164.210938 175.980469 165.78125 176.777344 167.761719 L 183.464844 184.488281 L 188.609375 187.0625 C 192.457031 188.984375 194.019531 193.664062 192.09375 197.515625 C 190.730469 200.246094 187.980469 201.820312 185.117188 201.820312 Z M 185.117188 201.820312"/><path fill="#67757F" d="M 150.066406 217.40625 C 147.210938 217.410156 144.457031 215.832031 143.089844 213.101562 L 139.195312 205.308594 C 138.417969 203.761719 138.183594 201.992188 138.523438 200.292969 L 141.828125 183.773438 L 131.691406 166.875 C 129.476562 163.1875 130.671875 158.402344 134.363281 156.1875 C 138.046875 153.96875 142.835938 155.167969 145.050781 158.859375 L 156.738281 178.332031 C 157.738281 179.996094 158.082031 181.972656 157.699219 183.875 L 154.328125 200.730469 L 157.027344 206.128906 C 158.953125 209.980469 157.390625 214.660156 153.542969 216.585938 C 152.425781 217.144531 151.238281 217.40625 150.066406 217.40625 Z M 150.066406 217.40625"/><path fill="#BBDDF5" d="M 181.230469 162.863281 C 166.082031 162.863281 153.058594 146.078125 151.621094 144.164062 C 149.039062 140.71875 149.738281 135.835938 153.179688 133.253906 C 156.621094 130.675781 161.496094 131.371094 164.078125 134.800781 C 168 139.984375 175.910156 147.28125 181.230469 147.28125 C 185.53125 147.28125 189.019531 150.769531 189.019531 155.070312 C 189.019531 159.371094 185.535156 162.863281 181.230469 162.863281 Z M 115 178.449219 C 111.738281 178.449219 108.695312 176.386719 107.609375 173.121094 C 103.488281 160.753906 105.886719 149.273438 114.363281 140.796875 C 120.355469 134.796875 127.34375 132.355469 128.121094 132.097656 C 132.195312 130.742188 136.617188 132.941406 137.976562 137.027344 C 139.332031 141.09375 137.148438 145.488281 133.09375 146.867188 C 129.339844 148.179688 117.523438 153.589844 122.394531 168.191406 C 123.753906 172.277344 121.550781 176.6875 117.464844 178.050781 C 116.648438 178.320312 115.820312 178.449219 115 178.449219 Z M 115 178.449219"/><path fill="#67757F" d="M 157.855469 160.914062 C 157.855469 168.445312 151.75 174.550781 144.21875 174.550781 C 136.6875 174.550781 130.582031 168.445312 130.582031 160.914062 L 130.582031 145.332031 C 130.582031 137.800781 136.6875 131.695312 144.21875 131.695312 C 151.75 131.695312 157.855469 137.800781 157.855469 145.332031 Z M 157.855469 160.914062"/><path fill="#BBDDF5" d="M 165.644531 139.488281 C 165.644531 143.789062 162.15625 147.28125 157.855469 147.28125 L 130.582031 147.28125 C 126.28125 147.28125 122.792969 143.789062 122.792969 139.488281 C 122.792969 135.1875 126.28125 131.695312 130.582031 131.695312 L 157.855469 131.695312 C 162.160156 131.695312 165.644531 135.1875 165.644531 139.488281 Z M 165.644531 139.488281"/><path fill="#BBDDF5" d="M 128.992188 172.601562 C 128.601562 172.601562 128.214844 172.484375 127.882812 172.257812 C 127.363281 171.890625 127.046875 171.292969 127.046875 170.65625 L 127.046875 143.382812 C 127.046875 133.644531 137.597656 133.644531 144.578125 133.644531 C 151.558594 133.644531 162.109375 133.644531 162.109375 143.382812 L 162.109375 158.96875 C 162.109375 159.777344 161.605469 160.507812 160.847656 160.789062 L 129.679688 172.476562 C 129.457031 172.5625 129.222656 172.601562 128.992188 172.601562 Z M 128.992188 172.601562"/><path fill="#1C6399" d="M 208.761719 115.496094 L 204.867188 103.808594 C 204.597656 103.015625 203.851562 102.476562 203.015625 102.476562 C 202.511719 102.476562 190.492188 102.613281 174.574219 114.554688 C 159.511719 125.851562 156.050781 125.851562 148.472656 125.851562 L 136.785156 125.851562 C 136.269531 125.851562 135.773438 126.058594 135.40625 126.425781 C 133.351562 128.480469 132.8125 131.367188 133.960938 134.148438 C 135.425781 137.667969 140.003906 141.4375 148.472656 141.4375 C 154.074219 141.4375 162.234375 136.933594 171.679688 131.71875 C 183.28125 125.320312 196.4375 118.0625 206.910156 118.0625 C 207.539062 118.0625 208.125 117.761719 208.488281 117.253906 C 208.859375 116.746094 208.957031 116.089844 208.761719 115.496094 Z M 208.761719 115.496094"/><path fill="#FFDC5D" d="M 157.855469 116.113281 C 157.855469 124.71875 150.878906 131.695312 142.269531 131.695312 C 133.664062 131.695312 126.6875 124.71875 126.6875 116.113281 C 126.6875 107.507812 133.664062 104.425781 142.269531 104.425781 C 150.878906 104.425781 157.855469 107.507812 157.855469 116.113281 Z M 157.855469 116.113281"/><g clip-path="url(#b)"><path fill="#9AAAB4" d="M 132.890625 116.113281 C 140.679688 116.113281 148.472656 112.21875 148.472656 116.113281 C 148.472656 120.007812 148.472656 127.800781 156.265625 127.800781 C 164.054688 127.800781 167.953125 100.53125 144.578125 100.53125 C 121.203125 100.53125 121.203125 116.113281 132.890625 116.113281 Z M 132.890625 116.113281"/></g><path fill="#BDDDF4" d="M 136.785156 118.0625 C 136.785156 118.445312 136.75 118.824219 136.671875 119.203125 C 136.597656 119.578125 136.488281 119.941406 136.339844 120.296875 C 136.195312 120.652344 136.015625 120.988281 135.800781 121.308594 C 135.585938 121.628906 135.34375 121.921875 135.074219 122.195312 C 134.804688 122.464844 134.507812 122.707031 134.1875 122.921875 C 133.871094 123.132812 133.53125 123.3125 133.179688 123.460938 C 132.824219 123.605469 132.457031 123.71875 132.082031 123.792969 C 131.707031 123.867188 131.324219 123.90625 130.941406 123.90625 C 130.558594 123.90625 130.179688 123.867188 129.800781 123.792969 C 129.425781 123.71875 129.058594 123.605469 128.707031 123.460938 C 128.351562 123.3125 128.015625 123.132812 127.695312 122.921875 C 127.375 122.707031 127.082031 122.464844 126.808594 122.195312 C 126.539062 121.921875 126.296875 121.628906 126.082031 121.308594 C 125.871094 120.988281 125.691406 120.652344 125.542969 120.296875 C 125.394531 119.941406 125.285156 119.578125 125.210938 119.203125 C 125.136719 118.824219 125.097656 118.445312 125.097656 118.0625 C 125.097656 117.679688 125.136719 117.296875 125.210938 116.921875 C 125.285156 116.546875 125.394531 116.179688 125.542969 115.824219 C 125.691406 115.46875 125.871094 115.132812 126.082031 114.816406 C 126.296875 114.496094 126.539062 114.199219 126.808594 113.929688 C 127.082031 113.65625 127.375 113.414062 127.695312 113.203125 C 128.015625 112.988281 128.351562 112.808594 128.707031 112.664062 C 129.058594 112.515625 129.425781 112.40625 129.800781 112.328125 C 130.179688 112.253906 130.558594 112.21875 130.941406 112.21875 C 131.324219 112.21875 131.707031 112.253906 132.082031 112.328125 C 132.457031 112.40625 132.824219 112.515625 133.179688 112.664062 C 133.53125 112.808594 133.871094 112.988281 134.1875 113.203125 C 134.507812 113.414062 134.804688 113.65625 135.074219 113.929688 C 135.34375 114.199219 135.585938 114.496094 135.800781 114.816406 C 136.015625 115.132812 136.195312 115.46875 136.339844 115.824219 C 136.488281 116.179688 136.597656 116.546875 136.671875 116.921875 C 136.75 117.296875 136.785156 117.679688 136.785156 118.0625 Z M 136.785156 118.0625"/><path fill="#67757F" d="M 130.941406 125.851562 C 126.644531 125.851562 123.148438 122.359375 123.148438 118.0625 C 123.148438 113.765625 126.644531 110.269531 130.941406 110.269531 C 135.238281 110.269531 138.734375 113.765625 138.734375 118.0625 C 138.734375 122.359375 135.238281 125.851562 130.941406 125.851562 Z M 130.941406 114.164062 C 128.796875 114.164062 127.046875 115.914062 127.046875 118.0625 C 127.046875 120.207031 128.796875 121.957031 130.941406 121.957031 C 133.089844 121.957031 134.835938 120.207031 134.835938 118.0625 C 134.835938 115.914062 133.089844 114.164062 130.941406 114.164062 Z M 130.941406 114.164062"/><path fill="#BDDDF4" d="M 148.472656 118.0625 C 148.472656 118.445312 148.4375 118.824219 148.359375 119.203125 C 148.285156 119.578125 148.175781 119.941406 148.027344 120.296875 C 147.882812 120.652344 147.703125 120.988281 147.488281 121.308594 C 147.273438 121.628906 147.03125 121.921875 146.761719 122.195312 C 146.492188 122.464844 146.195312 122.707031 145.875 122.921875 C 145.558594 123.132812 145.21875 123.3125 144.867188 123.460938 C 144.511719 123.605469 144.144531 123.71875 143.769531 123.792969 C 143.394531 123.867188 143.011719 123.90625 142.628906 123.90625 C 142.246094 123.90625 141.867188 123.867188 141.488281 123.792969 C 141.113281 123.71875 140.746094 123.605469 140.394531 123.460938 C 140.039062 123.3125 139.703125 123.132812 139.382812 122.921875 C 139.0625 122.707031 138.769531 122.464844 138.496094 122.195312 C 138.226562 121.921875 137.984375 121.628906 137.769531 121.308594 C 137.558594 120.988281 137.378906 120.652344 137.230469 120.296875 C 137.082031 119.941406 136.972656 119.578125 136.898438 119.203125 C 136.824219 118.824219 136.785156 118.445312 136.785156 118.0625 C 136.785156 117.679688 136.824219 117.296875 136.898438 116.921875 C 136.972656 116.546875 137.082031 116.179688 137.230469 115.824219 C 137.378906 115.46875 137.558594 115.132812 137.769531 114.816406 C 137.984375 114.496094 138.226562 114.199219 138.496094 113.929688 C 138.769531 113.65625 139.0625 113.414062 139.382812 113.203125 C 139.703125 112.988281 140.039062 112.808594 140.394531 112.664062 C 140.746094 112.515625 141.113281 112.40625 141.488281 112.328125 C 141.867188 112.253906 142.246094 112.21875 142.628906 112.21875 C 143.011719 112.21875 143.394531 112.253906 143.769531 112.328125 C 144.144531 112.40625 144.511719 112.515625 144.867188 112.664062 C 145.21875 112.808594 145.558594 112.988281 145.875 113.203125 C 146.195312 113.414062 146.492188 113.65625 146.761719 113.929688 C 147.03125 114.199219 147.273438 114.496094 147.488281 114.816406 C 147.703125 115.132812 147.882812 115.46875 148.027344 115.824219 C 148.175781 116.179688 148.285156 116.546875 148.359375 116.921875 C 148.4375 117.296875 148.472656 117.679688 148.472656 118.0625 Z M 148.472656 118.0625"/><path fill="#67757F" d="M 142.628906 125.851562 C 138.332031 125.851562 134.835938 122.359375 134.835938 118.0625 C 134.835938 113.765625 138.332031 110.269531 142.628906 110.269531 C 146.925781 110.269531 150.421875 113.765625 150.421875 118.0625 C 150.421875 122.359375 146.925781 125.851562 142.628906 125.851562 Z M 142.628906 114.164062 C 140.484375 114.164062 138.734375 115.914062 138.734375 118.0625 C 138.734375 120.207031 140.484375 121.957031 142.628906 121.957031 C 144.777344 121.957031 146.523438 120.207031 146.523438 118.0625 C 146.523438 115.914062 144.777344 114.164062 142.628906 114.164062 Z M 142.628906 114.164062"/></svg>