<svg xmlns="http://www.w3.org/2000/svg" width="375" viewBox="0 0 375 375" height="375" version="1.0"><defs><clipPath id="a"><path d="M 168.023438 232 L 318.023438 232 L 318.023438 316.316406 L 168.023438 316.316406 Z M 168.023438 232"/></clipPath><clipPath id="b"><path d="M 209 166.316406 L 250 166.316406 L 250 196 L 209 196 Z M 209 166.316406"/></clipPath></defs><path fill="#004AAD" d="M-37.5 -37.5H412.5V412.5H-37.5z"/><g fill="#FFF"><g><g><path d="M 10.828125 -4.203125 C 9.097656 -3.492188 7.410156 -3.175781 5.765625 -3.25 C 4.128906 -3.332031 2.648438 -3.828125 1.328125 -4.734375 C 0.00390625 -5.648438 -1.015625 -6.992188 -1.734375 -8.765625 C -2.242188 -10.003906 -2.570312 -11.429688 -2.71875 -13.046875 C -3.039062 -16.515625 -2.519531 -19.320312 -1.15625 -21.46875 C 0.195312 -23.625 1.960938 -25.148438 4.140625 -26.046875 C 5.316406 -26.523438 6.425781 -26.773438 7.46875 -26.796875 C 8.519531 -26.816406 9.5625 -26.648438 10.59375 -26.296875 L 11.171875 -27.28125 C 11.546875 -27.945312 11.890625 -28.4375 12.203125 -28.75 C 12.515625 -29.070312 12.90625 -29.328125 13.375 -29.515625 C 13.894531 -29.734375 14.359375 -29.789062 14.765625 -29.6875 C 15.171875 -29.59375 15.460938 -29.328125 15.640625 -28.890625 C 15.734375 -28.671875 15.78125 -28.425781 15.78125 -28.15625 L 16.03125 -22.625 C 16.0625 -22.007812 15.992188 -21.535156 15.828125 -21.203125 C 15.660156 -20.867188 15.320312 -20.597656 14.8125 -20.390625 C 14.28125 -20.171875 13.765625 -20.179688 13.265625 -20.421875 C 12.773438 -20.660156 12.125 -21.15625 11.3125 -21.90625 C 10.425781 -22.675781 9.765625 -23.148438 9.328125 -23.328125 C 8.898438 -23.515625 8.382812 -23.484375 7.78125 -23.234375 C 6.9375 -22.890625 6.332031 -22.039062 5.96875 -20.6875 C 5.613281 -19.332031 5.546875 -17.484375 5.765625 -15.140625 C 5.929688 -13.160156 6.253906 -11.585938 6.734375 -10.421875 C 7.160156 -9.390625 7.671875 -8.695312 8.265625 -8.34375 C 8.859375 -8 9.488281 -7.96875 10.15625 -8.25 C 11.113281 -8.632812 11.816406 -9.171875 12.265625 -9.859375 C 12.722656 -10.546875 13.128906 -11.398438 13.484375 -12.421875 C 13.703125 -13.035156 13.894531 -13.503906 14.0625 -13.828125 C 14.238281 -14.160156 14.46875 -14.382812 14.75 -14.5 C 15.125 -14.644531 15.59375 -14.617188 16.15625 -14.421875 C 16.71875 -14.222656 17.066406 -13.925781 17.203125 -13.53125 C 17.410156 -13.09375 17.332031 -12.242188 16.96875 -10.984375 C 16.601562 -9.734375 15.910156 -8.460938 14.890625 -7.171875 C 13.867188 -5.878906 12.515625 -4.890625 10.828125 -4.203125 Z M 10.828125 -4.203125" transform="translate(34.29 193.815)"/></g></g></g><g fill="#FFF"><g><g><path d="M 6.46875 -27.171875 C 9.0625 -28.222656 11.335938 -28.4375 13.296875 -27.8125 C 15.265625 -27.1875 16.71875 -25.722656 17.65625 -23.421875 C 18.101562 -22.328125 18.414062 -21.082031 18.59375 -19.6875 C 18.914062 -17.132812 18.753906 -14.785156 18.109375 -12.640625 C 17.472656 -10.503906 16.425781 -8.660156 14.96875 -7.109375 C 13.507812 -5.554688 11.726562 -4.347656 9.625 -3.484375 C 7.0625 -2.441406 4.796875 -2.234375 2.828125 -2.859375 C 0.867188 -3.484375 -0.582031 -4.953125 -1.53125 -7.265625 C -1.957031 -8.304688 -2.269531 -9.582031 -2.46875 -11.09375 C -2.800781 -13.613281 -2.648438 -15.9375 -2.015625 -18.0625 C -1.378906 -20.1875 -0.335938 -22.019531 1.109375 -23.5625 C 2.554688 -25.101562 4.34375 -26.304688 6.46875 -27.171875 Z M 7.140625 -23.921875 C 6.523438 -23.671875 6.070312 -23.191406 5.78125 -22.484375 C 5.488281 -21.785156 5.328125 -20.78125 5.296875 -19.46875 C 5.265625 -18.15625 5.382812 -16.382812 5.65625 -14.15625 C 5.988281 -10.9375 6.378906 -8.78125 6.828125 -7.6875 C 7.085938 -7.039062 7.390625 -6.617188 7.734375 -6.421875 C 8.085938 -6.234375 8.515625 -6.242188 9.015625 -6.453125 C 9.628906 -6.703125 10.078125 -7.175781 10.359375 -7.875 C 10.648438 -8.582031 10.800781 -9.585938 10.8125 -10.890625 C 10.832031 -12.203125 10.738281 -13.953125 10.53125 -16.140625 C 10.164062 -19.304688 9.75 -21.46875 9.28125 -22.625 C 9.007812 -23.28125 8.703125 -23.707031 8.359375 -23.90625 C 8.015625 -24.113281 7.609375 -24.117188 7.140625 -23.921875 Z M 7.140625 -23.921875" transform="translate(59.984 183.333)"/></g></g></g><g fill="#FFF"><g><g><path d="M 24.78125 -34.109375 C 25.21875 -34.285156 25.578125 -34.351562 25.859375 -34.3125 C 26.148438 -34.28125 26.347656 -34.144531 26.453125 -33.90625 C 26.492188 -33.789062 26.519531 -33.640625 26.53125 -33.453125 C 26.539062 -33.242188 26.507812 -33.066406 26.4375 -32.921875 C 26.363281 -32.785156 26.242188 -32.597656 26.078125 -32.359375 C 25.816406 -32.035156 25.632812 -31.722656 25.53125 -31.421875 C 25.425781 -31.117188 25.394531 -30.695312 25.4375 -30.15625 L 27.109375 -15.34375 C 27.128906 -15.03125 27.1875 -14.753906 27.28125 -14.515625 C 27.375 -14.285156 27.488281 -14.109375 27.625 -13.984375 C 27.757812 -13.859375 27.929688 -13.722656 28.140625 -13.578125 C 28.265625 -13.503906 28.378906 -13.421875 28.484375 -13.328125 C 28.597656 -13.242188 28.679688 -13.140625 28.734375 -13.015625 C 28.742188 -12.984375 28.765625 -12.875 28.796875 -12.6875 C 28.816406 -12.382812 28.703125 -12.109375 28.453125 -11.859375 C 28.210938 -11.617188 27.8125 -11.382812 27.25 -11.15625 L 20 -8.1875 C 19.570312 -8.019531 19.207031 -7.957031 18.90625 -8 C 18.613281 -8.050781 18.414062 -8.203125 18.3125 -8.453125 C 18.269531 -8.566406 18.25 -8.710938 18.25 -8.890625 C 18.25 -9.054688 18.28125 -9.21875 18.34375 -9.375 C 18.414062 -9.539062 18.484375 -9.664062 18.546875 -9.75 C 18.617188 -9.84375 18.664062 -9.921875 18.6875 -9.984375 C 18.945312 -10.285156 19.132812 -10.59375 19.25 -10.90625 C 19.363281 -11.226562 19.394531 -11.648438 19.34375 -12.171875 L 18.28125 -21.46875 L 14.328125 -8.296875 C 14.003906 -7.222656 13.703125 -6.457031 13.421875 -6 C 13.140625 -5.539062 12.738281 -5.203125 12.21875 -4.984375 C 11.726562 -4.785156 11.28125 -4.785156 10.875 -4.984375 C 10.46875 -5.191406 9.992188 -5.628906 9.453125 -6.296875 L 2.65625 -14.65625 L 3.640625 -5.734375 C 3.660156 -5.429688 3.722656 -5.160156 3.828125 -4.921875 C 3.929688 -4.671875 4.050781 -4.476562 4.1875 -4.34375 C 4.320312 -4.207031 4.503906 -4.078125 4.734375 -3.953125 C 5.023438 -3.753906 5.207031 -3.570312 5.28125 -3.40625 C 5.300781 -3.363281 5.320312 -3.253906 5.34375 -3.078125 C 5.375 -2.742188 5.265625 -2.460938 5.015625 -2.234375 C 4.773438 -2.015625 4.375 -1.785156 3.8125 -1.546875 L 1.234375 -0.5 C 0.804688 -0.320312 0.441406 -0.257812 0.140625 -0.3125 C -0.148438 -0.363281 -0.347656 -0.515625 -0.453125 -0.765625 C -0.503906 -0.878906 -0.523438 -1.019531 -0.515625 -1.1875 C -0.523438 -1.445312 -0.460938 -1.675781 -0.328125 -1.875 C -0.191406 -2.070312 -0.113281 -2.195312 -0.09375 -2.25 C 0.15625 -2.570312 0.335938 -2.882812 0.453125 -3.1875 C 0.578125 -3.5 0.613281 -3.925781 0.5625 -4.46875 L -1.125 -19.34375 L -2.28125 -20.796875 C -2.5 -21.054688 -2.671875 -21.332031 -2.796875 -21.625 C -2.941406 -22 -2.929688 -22.316406 -2.765625 -22.578125 C -2.597656 -22.835938 -2.269531 -23.070312 -1.78125 -23.28125 L 3.015625 -25.234375 C 3.628906 -25.484375 4.140625 -25.53125 4.546875 -25.375 C 4.953125 -25.226562 5.382812 -24.863281 5.84375 -24.28125 L 13.109375 -15.28125 L 17.234375 -29.125 C 17.503906 -30 17.847656 -30.648438 18.265625 -31.078125 C 18.691406 -31.503906 19.332031 -31.890625 20.1875 -32.234375 Z M 24.78125 -34.109375" transform="translate(86.943 172.335)"/></g></g></g><g fill="#FFF"><g><g><path d="M 11.78125 -28.8125 C 12.539062 -29.113281 13.195312 -29.1875 13.75 -29.03125 C 14.3125 -28.882812 14.707031 -28.519531 14.9375 -27.9375 C 15.0625 -27.644531 15.132812 -27.34375 15.15625 -27.03125 L 15.53125 -23.84375 C 15.613281 -23.226562 15.554688 -22.753906 15.359375 -22.421875 C 15.171875 -22.097656 14.820312 -21.832031 14.3125 -21.625 C 13.8125 -21.414062 13.378906 -21.363281 13.015625 -21.46875 C 12.648438 -21.570312 12.300781 -21.84375 11.96875 -22.28125 L 10.734375 -23.84375 C 10.484375 -24.164062 10.257812 -24.359375 10.0625 -24.421875 C 9.863281 -24.492188 9.554688 -24.441406 9.140625 -24.265625 L 5.90625 -22.953125 L 6.609375 -16.8125 L 7.96875 -17.375 C 8.113281 -17.4375 8.269531 -17.613281 8.4375 -17.90625 L 9.109375 -19.28125 C 9.304688 -19.675781 9.492188 -19.984375 9.671875 -20.203125 C 9.847656 -20.421875 10.097656 -20.597656 10.421875 -20.734375 C 10.785156 -20.878906 11.128906 -20.898438 11.453125 -20.796875 C 11.773438 -20.703125 12 -20.5 12.125 -20.1875 C 12.15625 -20.113281 12.1875 -19.976562 12.21875 -19.78125 L 12.6875 -14.984375 C 12.75 -14.472656 12.675781 -14.050781 12.46875 -13.71875 C 12.257812 -13.382812 11.976562 -13.144531 11.625 -13 C 11.050781 -12.769531 10.5 -12.890625 9.96875 -13.359375 L 9 -14.234375 C 8.726562 -14.484375 8.4375 -14.546875 8.125 -14.421875 L 6.921875 -13.921875 L 7.78125 -6.640625 L 10.5 -7.75 C 10.894531 -7.90625 11.207031 -8.117188 11.4375 -8.390625 C 11.664062 -8.660156 11.878906 -9.066406 12.078125 -9.609375 L 13.09375 -12.390625 C 13.28125 -12.878906 13.488281 -13.265625 13.71875 -13.546875 C 13.957031 -13.828125 14.296875 -14.054688 14.734375 -14.234375 C 15.179688 -14.410156 15.59375 -14.453125 15.96875 -14.359375 C 16.34375 -14.273438 16.617188 -14.023438 16.796875 -13.609375 C 16.859375 -13.453125 16.898438 -13.242188 16.921875 -12.984375 L 17.296875 -9.5 C 17.398438 -8.625 17.296875 -7.941406 16.984375 -7.453125 C 16.671875 -6.972656 16.109375 -6.566406 15.296875 -6.234375 L 0.546875 -0.21875 C 0.117188 -0.0507812 -0.238281 0.0078125 -0.53125 -0.03125 C -0.832031 -0.0820312 -1.035156 -0.234375 -1.140625 -0.484375 C -1.191406 -0.597656 -1.207031 -0.738281 -1.1875 -0.90625 C -1.207031 -1.175781 -1.148438 -1.40625 -1.015625 -1.59375 C -0.878906 -1.789062 -0.796875 -1.914062 -0.765625 -1.96875 C -0.523438 -2.300781 -0.34375 -2.617188 -0.21875 -2.921875 C -0.101562 -3.222656 -0.0703125 -3.648438 -0.125 -4.203125 L -1.75 -19.0625 C -1.78125 -19.363281 -1.84375 -19.625 -1.9375 -19.84375 C -2.039062 -20.09375 -2.160156 -20.285156 -2.296875 -20.421875 C -2.441406 -20.554688 -2.625 -20.691406 -2.84375 -20.828125 C -3.125 -21.003906 -3.300781 -21.175781 -3.375 -21.34375 C -3.394531 -21.414062 -3.425781 -21.539062 -3.46875 -21.71875 C -3.476562 -22.007812 -3.363281 -22.273438 -3.125 -22.515625 C -2.882812 -22.753906 -2.488281 -22.984375 -1.9375 -23.203125 Z M 4.53125 -31.796875 C 4.664062 -32.859375 4.914062 -33.691406 5.28125 -34.296875 C 5.644531 -34.898438 6.203125 -35.351562 6.953125 -35.65625 C 7.585938 -35.914062 8.160156 -35.945312 8.671875 -35.75 C 9.179688 -35.5625 9.554688 -35.179688 9.796875 -34.609375 C 10.046875 -33.984375 10.054688 -33.363281 9.828125 -32.75 C 9.597656 -32.132812 9.113281 -31.414062 8.375 -30.59375 L 6.21875 -28.1875 C 5.882812 -27.863281 5.585938 -27.648438 5.328125 -27.546875 C 5.078125 -27.441406 4.851562 -27.414062 4.65625 -27.46875 C 4.457031 -27.53125 4.304688 -27.6875 4.203125 -27.9375 C 4.085938 -28.207031 4.0625 -28.554688 4.125 -28.984375 Z M 4.53125 -31.796875" transform="translate(123.228 157.533)"/></g></g></g><g fill="#FFF"><g><g><path d="M 6.40625 -26.609375 C 9.488281 -27.867188 12.050781 -28.222656 14.09375 -27.671875 C 16.144531 -27.128906 17.632812 -25.710938 18.5625 -23.421875 C 19.03125 -22.296875 19.367188 -20.910156 19.578125 -19.265625 C 19.859375 -16.597656 19.707031 -14.328125 19.125 -12.453125 C 18.550781 -10.578125 17.453125 -8.9375 15.828125 -7.53125 C 14.203125 -6.125 11.910156 -4.832031 8.953125 -3.65625 L 0.53125 -0.25 C 0.101562 -0.0820312 -0.253906 -0.0195312 -0.546875 -0.0625 C -0.847656 -0.113281 -1.050781 -0.265625 -1.15625 -0.515625 C -1.195312 -0.628906 -1.210938 -0.769531 -1.203125 -0.9375 C -1.234375 -1.15625 -1.207031 -1.328125 -1.125 -1.453125 C -1.039062 -1.585938 -0.914062 -1.773438 -0.75 -2.015625 C -0.5 -2.316406 -0.320312 -2.625 -0.21875 -2.9375 C -0.113281 -3.25 -0.0859375 -3.679688 -0.140625 -4.234375 L -1.796875 -19.046875 C -1.816406 -19.347656 -1.878906 -19.617188 -1.984375 -19.859375 C -2.078125 -20.085938 -2.191406 -20.265625 -2.328125 -20.390625 C -2.460938 -20.515625 -2.632812 -20.660156 -2.84375 -20.828125 C -3.125 -21.003906 -3.300781 -21.175781 -3.375 -21.34375 C -3.394531 -21.414062 -3.425781 -21.539062 -3.46875 -21.71875 C -3.476562 -22.007812 -3.367188 -22.269531 -3.140625 -22.5 C -2.921875 -22.738281 -2.519531 -22.972656 -1.9375 -23.203125 Z M 11.375 -16.703125 C 11.125 -18.859375 10.773438 -20.492188 10.328125 -21.609375 C 9.878906 -22.691406 9.34375 -23.347656 8.71875 -23.578125 C 8.09375 -23.816406 7.351562 -23.765625 6.5 -23.421875 L 5.828125 -23.140625 L 7.78125 -6.421875 L 8.53125 -6.71875 C 9.46875 -7.101562 10.179688 -7.628906 10.671875 -8.296875 C 11.160156 -8.960938 11.460938 -9.953125 11.578125 -11.265625 C 11.691406 -12.578125 11.625 -14.390625 11.375 -16.703125 Z M 11.375 -16.703125" transform="translate(148.272 147.316)"/></g></g></g><g fill="#FFF"><g><g><path d="M 5.328125 -26.171875 C 5.753906 -26.347656 6.113281 -26.414062 6.40625 -26.375 C 6.695312 -26.34375 6.894531 -26.207031 7 -25.96875 C 7.039062 -25.851562 7.054688 -25.703125 7.046875 -25.515625 C 7.054688 -25.347656 7.023438 -25.179688 6.953125 -25.015625 C 6.890625 -24.859375 6.820312 -24.734375 6.75 -24.640625 C 6.675781 -24.546875 6.628906 -24.472656 6.609375 -24.421875 C 6.359375 -24.097656 6.175781 -23.78125 6.0625 -23.46875 C 5.945312 -23.164062 5.910156 -22.742188 5.953125 -22.203125 L 7.65625 -7.375 C 7.675781 -7.0625 7.738281 -6.785156 7.84375 -6.546875 C 7.945312 -6.296875 8.066406 -6.101562 8.203125 -5.96875 C 8.335938 -5.84375 8.519531 -5.71875 8.75 -5.59375 C 9.039062 -5.394531 9.222656 -5.210938 9.296875 -5.046875 C 9.316406 -5.003906 9.335938 -4.890625 9.359375 -4.703125 C 9.390625 -4.378906 9.285156 -4.101562 9.046875 -3.875 C 8.804688 -3.65625 8.394531 -3.425781 7.8125 -3.1875 L 0.546875 -0.21875 C 0.117188 -0.0507812 -0.238281 0.0078125 -0.53125 -0.03125 C -0.832031 -0.0820312 -1.035156 -0.234375 -1.140625 -0.484375 C -1.191406 -0.597656 -1.207031 -0.738281 -1.1875 -0.90625 C -1.207031 -1.175781 -1.148438 -1.40625 -1.015625 -1.59375 C -0.878906 -1.789062 -0.796875 -1.914062 -0.765625 -1.96875 C -0.523438 -2.300781 -0.34375 -2.617188 -0.21875 -2.921875 C -0.101562 -3.222656 -0.0703125 -3.648438 -0.125 -4.203125 L -1.796875 -19.046875 C -1.816406 -19.347656 -1.878906 -19.617188 -1.984375 -19.859375 C -2.078125 -20.085938 -2.191406 -20.265625 -2.328125 -20.390625 C -2.460938 -20.515625 -2.632812 -20.660156 -2.84375 -20.828125 C -3.125 -21.003906 -3.300781 -21.175781 -3.375 -21.34375 C -3.394531 -21.414062 -3.425781 -21.539062 -3.46875 -21.71875 C -3.476562 -22.007812 -3.367188 -22.269531 -3.140625 -22.5 C -2.921875 -22.738281 -2.519531 -22.972656 -1.9375 -23.203125 Z M 5.328125 -26.171875" transform="translate(176.435 135.827)"/></g></g></g><g fill="#FFF"><g><g><path d="M 17.375 -11.34375 C 17.40625 -11.039062 17.476562 -10.753906 17.59375 -10.484375 C 17.6875 -10.265625 17.796875 -10.085938 17.921875 -9.953125 C 18.046875 -9.828125 18.160156 -9.734375 18.265625 -9.671875 C 18.378906 -9.609375 18.457031 -9.554688 18.5 -9.515625 C 18.78125 -9.398438 18.960938 -9.238281 19.046875 -9.03125 C 19.066406 -8.988281 19.085938 -8.875 19.109375 -8.6875 C 19.140625 -8.363281 19.039062 -8.085938 18.8125 -7.859375 C 18.582031 -7.640625 18.179688 -7.414062 17.609375 -7.1875 L 10.28125 -4.203125 C 9.851562 -4.023438 9.488281 -3.957031 9.1875 -4 C 8.894531 -4.050781 8.695312 -4.203125 8.59375 -4.453125 C 8.539062 -4.566406 8.519531 -4.707031 8.53125 -4.875 C 8.519531 -5.070312 8.550781 -5.238281 8.625 -5.375 C 8.707031 -5.519531 8.828125 -5.691406 8.984375 -5.890625 C 9.234375 -6.222656 9.414062 -6.539062 9.53125 -6.84375 C 9.644531 -7.15625 9.664062 -7.59375 9.59375 -8.15625 L 9.3125 -11.15625 L 4.5 -9.203125 L 4.375 -7.09375 C 4.34375 -6.1875 4.414062 -5.515625 4.59375 -5.078125 C 4.695312 -4.828125 4.816406 -4.640625 4.953125 -4.515625 C 5.097656 -4.398438 5.289062 -4.289062 5.53125 -4.1875 C 5.738281 -4.09375 5.890625 -4 5.984375 -3.90625 C 6.085938 -3.8125 6.15625 -3.664062 6.1875 -3.46875 C 6.226562 -3.113281 6.144531 -2.828125 5.9375 -2.609375 C 5.726562 -2.398438 5.34375 -2.179688 4.78125 -1.953125 L 0.1875 -0.078125 C -0.28125 0.117188 -0.675781 0.179688 -1 0.109375 C -1.320312 0.0351562 -1.539062 -0.144531 -1.65625 -0.4375 C -1.789062 -0.769531 -1.773438 -1.082031 -1.609375 -1.375 C -1.453125 -1.675781 -1.1875 -2.03125 -0.8125 -2.4375 C -0.320312 -2.988281 0.046875 -3.488281 0.296875 -3.9375 C 0.554688 -4.394531 0.703125 -4.953125 0.734375 -5.609375 L 1.59375 -19.234375 C 1.71875 -21.347656 2.1875 -23.035156 3 -24.296875 C 3.8125 -25.566406 5.15625 -26.582031 7.03125 -27.34375 C 9.132812 -28.207031 10.9375 -28.441406 12.4375 -28.046875 C 13.945312 -27.660156 15.007812 -26.703125 15.625 -25.171875 C 15.882812 -24.535156 16.054688 -23.84375 16.140625 -23.09375 Z M 8.984375 -14.625 L 8.40625 -20.71875 C 8.382812 -21 8.320312 -21.273438 8.21875 -21.546875 C 8.050781 -21.941406 7.820312 -22.191406 7.53125 -22.296875 C 7.238281 -22.398438 6.894531 -22.367188 6.5 -22.203125 C 6 -22.003906 5.632812 -21.6875 5.40625 -21.25 C 5.175781 -20.820312 5.039062 -20.171875 5 -19.296875 L 4.671875 -12.859375 Z M 8.984375 -14.625" transform="translate(193.235 128.974)"/></g></g></g><g fill="#FFF"><g><g><path d="M 11.75 -28.796875 C 12.507812 -29.109375 13.164062 -29.1875 13.71875 -29.03125 C 14.28125 -28.875 14.675781 -28.503906 14.90625 -27.921875 C 15.03125 -27.628906 15.101562 -27.328125 15.125 -27.015625 L 15.484375 -23.828125 C 15.566406 -23.234375 15.488281 -22.753906 15.25 -22.390625 C 15.007812 -22.035156 14.628906 -21.75 14.109375 -21.53125 C 13.585938 -21.320312 13.125 -21.257812 12.71875 -21.34375 C 12.320312 -21.4375 11.953125 -21.703125 11.609375 -22.140625 L 10.390625 -23.703125 C 10.179688 -23.972656 9.992188 -24.132812 9.828125 -24.1875 C 9.660156 -24.238281 9.378906 -24.1875 8.984375 -24.03125 L 5.90625 -22.765625 L 6.671875 -15.953125 L 7.265625 -16.1875 C 7.554688 -16.3125 7.789062 -16.457031 7.96875 -16.625 C 8.15625 -16.800781 8.328125 -17.046875 8.484375 -17.359375 L 9.125 -18.578125 C 9.34375 -19.015625 9.5625 -19.351562 9.78125 -19.59375 C 10 -19.84375 10.257812 -20.03125 10.5625 -20.15625 C 10.957031 -20.3125 11.328125 -20.328125 11.671875 -20.203125 C 12.023438 -20.085938 12.285156 -19.828125 12.453125 -19.421875 C 12.515625 -19.253906 12.566406 -19.046875 12.609375 -18.796875 L 13.171875 -13.5625 C 13.265625 -12.414062 12.910156 -11.679688 12.109375 -11.359375 C 11.453125 -11.085938 10.800781 -11.21875 10.15625 -11.75 L 9.171875 -12.5625 C 8.910156 -12.800781 8.703125 -12.9375 8.546875 -12.96875 C 8.390625 -13 8.1875 -12.960938 7.9375 -12.859375 L 7.046875 -12.5 L 7.625 -7.359375 C 7.644531 -7.210938 7.695312 -7.039062 7.78125 -6.84375 C 7.894531 -6.550781 8.054688 -6.335938 8.265625 -6.203125 C 8.472656 -6.078125 8.753906 -5.96875 9.109375 -5.875 C 9.410156 -5.78125 9.625 -5.691406 9.75 -5.609375 C 9.882812 -5.535156 9.984375 -5.414062 10.046875 -5.25 C 10.203125 -4.882812 10.140625 -4.5625 9.859375 -4.28125 C 9.585938 -4 9.132812 -3.726562 8.5 -3.46875 L 0.734375 -0.296875 C 0.203125 -0.078125 -0.234375 -0.0078125 -0.578125 -0.09375 C -0.929688 -0.1875 -1.132812 -0.425781 -1.1875 -0.8125 C -1.226562 -1.007812 -1.210938 -1.1875 -1.140625 -1.34375 C -1.066406 -1.507812 -0.953125 -1.710938 -0.796875 -1.953125 C -0.535156 -2.296875 -0.347656 -2.625 -0.234375 -2.9375 C -0.117188 -3.25 -0.09375 -3.664062 -0.15625 -4.1875 L -1.796875 -19.046875 C -1.816406 -19.347656 -1.875 -19.609375 -1.96875 -19.828125 C -2.070312 -20.078125 -2.191406 -20.269531 -2.328125 -20.40625 C -2.472656 -20.539062 -2.65625 -20.675781 -2.875 -20.8125 C -3.15625 -21 -3.332031 -21.175781 -3.40625 -21.34375 C -3.425781 -21.414062 -3.457031 -21.535156 -3.5 -21.703125 C -3.507812 -22.003906 -3.394531 -22.269531 -3.15625 -22.5 C -2.925781 -22.738281 -2.53125 -22.972656 -1.96875 -23.203125 Z M 11.75 -28.796875" transform="translate(219.113 118.417)"/></g></g></g><g fill="#FFF"><g><g><path d="M 14.4375 -15.1875 C 15.019531 -15.425781 15.503906 -15.488281 15.890625 -15.375 C 16.285156 -15.257812 16.570312 -14.984375 16.75 -14.546875 C 16.832031 -14.367188 16.894531 -14.148438 16.9375 -13.890625 L 17.375 -9.859375 C 17.457031 -8.867188 17.332031 -8.097656 17 -7.546875 C 16.664062 -7.003906 16.023438 -6.539062 15.078125 -6.15625 L 0.546875 -0.21875 C 0.117188 -0.0507812 -0.238281 0.0078125 -0.53125 -0.03125 C -0.832031 -0.0820312 -1.035156 -0.234375 -1.140625 -0.484375 C -1.191406 -0.597656 -1.207031 -0.738281 -1.1875 -0.90625 C -1.207031 -1.101562 -1.164062 -1.285156 -1.0625 -1.453125 C -0.96875 -1.628906 -0.859375 -1.804688 -0.734375 -1.984375 C -0.492188 -2.304688 -0.3125 -2.617188 -0.1875 -2.921875 C -0.0703125 -3.234375 -0.0390625 -3.660156 -0.09375 -4.203125 L -1.75 -19.0625 C -1.78125 -19.363281 -1.847656 -19.632812 -1.953125 -19.875 C -2.046875 -20.101562 -2.160156 -20.28125 -2.296875 -20.40625 C -2.429688 -20.53125 -2.601562 -20.671875 -2.8125 -20.828125 C -3.101562 -21.015625 -3.285156 -21.191406 -3.359375 -21.359375 C -3.378906 -21.429688 -3.40625 -21.554688 -3.4375 -21.734375 C -3.457031 -22.023438 -3.347656 -22.285156 -3.109375 -22.515625 C -2.878906 -22.753906 -2.476562 -22.988281 -1.90625 -23.21875 L 5.359375 -26.1875 C 5.785156 -26.363281 6.144531 -26.429688 6.4375 -26.390625 C 6.726562 -26.347656 6.925781 -26.207031 7.03125 -25.96875 C 7.070312 -25.851562 7.09375 -25.707031 7.09375 -25.53125 C 7.09375 -25.351562 7.054688 -25.1875 6.984375 -25.03125 C 6.921875 -24.875 6.851562 -24.75 6.78125 -24.65625 C 6.71875 -24.570312 6.671875 -24.5 6.640625 -24.4375 C 6.390625 -24.113281 6.207031 -23.796875 6.09375 -23.484375 C 5.976562 -23.179688 5.941406 -22.757812 5.984375 -22.21875 L 7.71875 -6.609375 L 9.640625 -7.390625 C 10.109375 -7.578125 10.476562 -7.820312 10.75 -8.125 C 11.03125 -8.425781 11.257812 -8.882812 11.4375 -9.5 L 12.546875 -12.890625 C 12.742188 -13.503906 12.976562 -13.988281 13.25 -14.34375 C 13.53125 -14.695312 13.925781 -14.976562 14.4375 -15.1875 Z M 14.4375 -15.1875" transform="translate(242.922 108.704)"/></g></g></g><g fill="#FFF"><g><g><path d="M 5.328125 -26.171875 C 5.753906 -26.347656 6.113281 -26.414062 6.40625 -26.375 C 6.695312 -26.34375 6.894531 -26.207031 7 -25.96875 C 7.039062 -25.851562 7.054688 -25.703125 7.046875 -25.515625 C 7.054688 -25.347656 7.023438 -25.179688 6.953125 -25.015625 C 6.890625 -24.859375 6.820312 -24.734375 6.75 -24.640625 C 6.675781 -24.546875 6.628906 -24.472656 6.609375 -24.421875 C 6.359375 -24.097656 6.175781 -23.78125 6.0625 -23.46875 C 5.945312 -23.164062 5.910156 -22.742188 5.953125 -22.203125 L 7.65625 -7.375 C 7.675781 -7.0625 7.738281 -6.785156 7.84375 -6.546875 C 7.945312 -6.296875 8.066406 -6.101562 8.203125 -5.96875 C 8.335938 -5.84375 8.519531 -5.71875 8.75 -5.59375 C 9.039062 -5.394531 9.222656 -5.210938 9.296875 -5.046875 C 9.316406 -5.003906 9.335938 -4.890625 9.359375 -4.703125 C 9.390625 -4.378906 9.285156 -4.101562 9.046875 -3.875 C 8.804688 -3.65625 8.394531 -3.425781 7.8125 -3.1875 L 0.546875 -0.21875 C 0.117188 -0.0507812 -0.238281 0.0078125 -0.53125 -0.03125 C -0.832031 -0.0820312 -1.035156 -0.234375 -1.140625 -0.484375 C -1.191406 -0.597656 -1.207031 -0.738281 -1.1875 -0.90625 C -1.207031 -1.175781 -1.148438 -1.40625 -1.015625 -1.59375 C -0.878906 -1.789062 -0.796875 -1.914062 -0.765625 -1.96875 C -0.523438 -2.300781 -0.34375 -2.617188 -0.21875 -2.921875 C -0.101562 -3.222656 -0.0703125 -3.648438 -0.125 -4.203125 L -1.796875 -19.046875 C -1.816406 -19.347656 -1.878906 -19.617188 -1.984375 -19.859375 C -2.078125 -20.085938 -2.191406 -20.265625 -2.328125 -20.390625 C -2.460938 -20.515625 -2.632812 -20.660156 -2.84375 -20.828125 C -3.125 -21.003906 -3.300781 -21.175781 -3.375 -21.34375 C -3.394531 -21.414062 -3.425781 -21.539062 -3.46875 -21.71875 C -3.476562 -22.007812 -3.367188 -22.269531 -3.140625 -22.5 C -2.921875 -22.738281 -2.519531 -22.972656 -1.9375 -23.203125 Z M 5.328125 -26.171875" transform="translate(267.349 98.739)"/></g></g></g><g fill="#FFF"><g><g><path d="M 18.0625 -31.359375 C 18.53125 -31.554688 18.921875 -31.613281 19.234375 -31.53125 C 19.546875 -31.457031 19.765625 -31.28125 19.890625 -31 C 19.941406 -30.863281 19.96875 -30.765625 19.96875 -30.703125 C 20.019531 -30.410156 19.976562 -30.15625 19.84375 -29.9375 C 19.71875 -29.726562 19.484375 -29.457031 19.140625 -29.125 C 18.679688 -28.65625 18.28125 -28.210938 17.9375 -27.796875 C 17.59375 -27.378906 17.226562 -26.804688 16.84375 -26.078125 L 12.84375 -18.34375 L 18.796875 -12.28125 C 19.210938 -11.875 19.601562 -11.585938 19.96875 -11.421875 C 20.332031 -11.265625 20.75 -11.140625 21.21875 -11.046875 C 21.570312 -10.941406 21.820312 -10.851562 21.96875 -10.78125 C 22.113281 -10.707031 22.226562 -10.566406 22.3125 -10.359375 C 22.457031 -9.984375 22.441406 -9.660156 22.265625 -9.390625 C 22.097656 -9.117188 21.726562 -8.863281 21.15625 -8.625 L 12.84375 -5.234375 C 12.3125 -5.023438 11.878906 -4.953125 11.546875 -5.015625 C 11.210938 -5.078125 10.988281 -5.253906 10.875 -5.546875 C 10.820312 -5.671875 10.796875 -5.769531 10.796875 -5.84375 C 10.785156 -6.007812 10.804688 -6.171875 10.859375 -6.328125 C 10.910156 -6.484375 10.972656 -6.617188 11.046875 -6.734375 C 11.148438 -6.941406 11.21875 -7.125 11.25 -7.28125 C 11.289062 -7.445312 11.265625 -7.640625 11.171875 -7.859375 C 11.023438 -8.222656 10.722656 -8.632812 10.265625 -9.09375 L 8.125 -11.28125 L 6.375 -7.5 C 6.007812 -6.75 5.914062 -6.171875 6.09375 -5.765625 C 6.164062 -5.578125 6.269531 -5.4375 6.40625 -5.34375 C 6.539062 -5.25 6.738281 -5.140625 7 -5.015625 C 7.257812 -4.910156 7.46875 -4.789062 7.625 -4.65625 C 7.78125 -4.53125 7.867188 -4.367188 7.890625 -4.171875 C 7.929688 -3.804688 7.847656 -3.515625 7.640625 -3.296875 C 7.429688 -3.085938 7.046875 -2.867188 6.484375 -2.640625 L 0.03125 -0.015625 C -0.445312 0.179688 -0.84375 0.242188 -1.15625 0.171875 C -1.476562 0.0976562 -1.695312 -0.0820312 -1.8125 -0.375 C -1.863281 -0.5 -1.890625 -0.597656 -1.890625 -0.671875 C -1.941406 -0.960938 -1.898438 -1.210938 -1.765625 -1.421875 C -1.628906 -1.640625 -1.394531 -1.910156 -1.0625 -2.234375 C -0.582031 -2.710938 -0.175781 -3.164062 0.15625 -3.59375 C 0.5 -4.03125 0.859375 -4.597656 1.234375 -5.296875 L 5.609375 -13.8125 L 0.078125 -19.421875 C -0.328125 -19.828125 -0.710938 -20.109375 -1.078125 -20.265625 C -1.453125 -20.429688 -1.875 -20.5625 -2.34375 -20.65625 C -2.695312 -20.757812 -2.945312 -20.847656 -3.09375 -20.921875 C -3.238281 -20.992188 -3.351562 -21.128906 -3.4375 -21.328125 C -3.59375 -21.703125 -3.582031 -22.023438 -3.40625 -22.296875 C -3.226562 -22.578125 -2.847656 -22.835938 -2.265625 -23.078125 L 6.03125 -26.46875 C 6.570312 -26.6875 7.003906 -26.757812 7.328125 -26.6875 C 7.648438 -26.613281 7.875 -26.4375 8 -26.15625 C 8.050781 -26.019531 8.078125 -25.921875 8.078125 -25.859375 C 8.097656 -25.691406 8.078125 -25.53125 8.015625 -25.375 C 7.960938 -25.21875 7.898438 -25.078125 7.828125 -24.953125 C 7.710938 -24.753906 7.640625 -24.570312 7.609375 -24.40625 C 7.578125 -24.238281 7.609375 -24.039062 7.703125 -23.8125 C 7.835938 -23.488281 8.140625 -23.085938 8.609375 -22.609375 L 10.3125 -20.90625 L 11.6875 -23.875 C 12.070312 -24.644531 12.179688 -25.226562 12.015625 -25.625 C 11.941406 -25.8125 11.832031 -25.953125 11.6875 -26.046875 C 11.539062 -26.148438 11.335938 -26.253906 11.078125 -26.359375 C 11.023438 -26.378906 10.910156 -26.429688 10.734375 -26.515625 C 10.566406 -26.609375 10.4375 -26.710938 10.34375 -26.828125 C 10.257812 -26.953125 10.207031 -27.082031 10.1875 -27.21875 C 10.144531 -27.550781 10.226562 -27.828125 10.4375 -28.046875 C 10.65625 -28.273438 11.039062 -28.503906 11.59375 -28.734375 Z M 18.0625 -31.359375" transform="translate(284.148 91.886)"/></g></g></g><g clip-path="url(#a)"><path fill="#E1E8ED" d="M 318.023438 232.980469 L 318.023438 299.648438 C 318.023438 299.648438 318.023438 316.316406 301.355469 316.316406 L 184.691406 316.316406 C 168.023438 316.316406 168.023438 299.648438 168.023438 299.648438 L 168.023438 291.316406 C 168.023438 291.316406 238.855469 249.648438 318.023438 232.980469 Z M 318.023438 232.980469"/></g><path fill="#EA596E" d="M 304.757812 253.730469 C 306.683594 257.910156 304.851562 262.855469 300.675781 264.785156 L 202.277344 310.109375 C 198.097656 312.035156 193.152344 310.207031 191.226562 306.03125 L 187.742188 298.460938 C 185.816406 294.28125 187.644531 289.332031 191.820312 287.40625 L 290.214844 242.085938 C 294.398438 240.160156 299.34375 241.996094 301.273438 246.164062 Z M 304.757812 253.730469"/><path fill="#67757F" d="M 273.882812 274.648438 C 272.632812 274.648438 271.363281 274.371094 270.160156 273.769531 L 261.828125 269.601562 C 260 268.6875 258.578125 267.136719 257.816406 265.246094 L 250.808594 247.726562 L 233.289062 240.71875 C 229.019531 239.011719 226.941406 234.160156 228.648438 229.886719 C 230.355469 225.609375 235.214844 223.53125 239.480469 225.246094 L 260.320312 233.578125 C 262.4375 234.421875 264.113281 236.101562 264.960938 238.21875 L 272.117188 256.109375 L 277.617188 258.859375 C 281.730469 260.917969 283.402344 265.921875 281.34375 270.042969 C 279.886719 272.964844 276.945312 274.648438 273.882812 274.648438 Z M 273.882812 274.648438"/><path fill="#67757F" d="M 236.394531 291.316406 C 233.339844 291.320312 230.394531 289.632812 228.933594 286.710938 L 224.765625 278.378906 C 223.9375 276.722656 223.6875 274.832031 224.050781 273.015625 L 227.582031 255.34375 L 216.742188 237.273438 C 214.375 233.328125 215.652344 228.210938 219.597656 225.839844 C 223.539062 223.46875 228.660156 224.753906 231.03125 228.699219 L 243.53125 249.527344 C 244.597656 251.308594 244.964844 253.417969 244.558594 255.453125 L 240.953125 273.480469 L 243.839844 279.257812 C 245.898438 283.375 244.226562 288.378906 240.113281 290.441406 C 238.917969 291.035156 237.648438 291.316406 236.394531 291.316406 Z M 236.394531 291.316406"/><path fill="#BBDDF5" d="M 269.722656 232.980469 C 253.523438 232.980469 239.59375 215.027344 238.058594 212.980469 C 235.292969 209.296875 236.042969 204.074219 239.722656 201.316406 C 243.402344 198.558594 248.621094 199.296875 251.382812 202.96875 C 255.574219 208.511719 264.035156 216.316406 269.722656 216.316406 C 274.324219 216.316406 278.058594 220.046875 278.058594 224.648438 C 278.058594 229.25 274.328125 232.980469 269.722656 232.980469 Z M 198.890625 249.652344 C 195.402344 249.652344 192.148438 247.445312 190.988281 243.953125 C 186.578125 230.722656 189.144531 218.449219 198.207031 209.382812 C 204.621094 202.964844 212.089844 200.351562 212.925781 200.078125 C 217.28125 198.628906 222.011719 200.976562 223.464844 205.347656 C 224.914062 209.699219 222.578125 214.398438 218.242188 215.875 C 214.226562 217.277344 201.589844 223.066406 206.800781 238.683594 C 208.253906 243.046875 205.894531 247.765625 201.527344 249.222656 C 200.652344 249.515625 199.765625 249.652344 198.890625 249.652344 Z M 198.890625 249.652344"/><path fill="#67757F" d="M 244.722656 230.898438 C 244.722656 238.953125 238.195312 245.480469 230.140625 245.480469 C 222.085938 245.480469 215.558594 238.953125 215.558594 230.898438 L 215.558594 214.230469 C 215.558594 206.179688 222.085938 199.648438 230.140625 199.648438 C 238.195312 199.648438 244.722656 206.179688 244.722656 214.230469 Z M 244.722656 230.898438"/><path fill="#BBDDF5" d="M 253.058594 207.980469 C 253.058594 212.582031 249.324219 216.316406 244.722656 216.316406 L 215.558594 216.316406 C 210.957031 216.316406 207.222656 212.582031 207.222656 207.980469 C 207.222656 203.382812 210.957031 199.648438 215.558594 199.648438 L 244.722656 199.648438 C 249.328125 199.648438 253.058594 203.382812 253.058594 207.980469 Z M 253.058594 207.980469"/><path fill="#BBDDF5" d="M 213.855469 243.398438 C 213.4375 243.398438 213.023438 243.273438 212.667969 243.027344 C 212.113281 242.636719 211.773438 242 211.773438 241.316406 L 211.773438 212.148438 C 211.773438 201.730469 223.058594 201.730469 230.523438 201.730469 C 237.992188 201.730469 249.273438 201.730469 249.273438 212.148438 L 249.273438 228.816406 C 249.273438 229.683594 248.738281 230.460938 247.925781 230.765625 L 214.589844 243.265625 C 214.351562 243.355469 214.101562 243.398438 213.855469 243.398438 Z M 213.855469 243.398438"/><path fill="#1C6399" d="M 299.167969 182.324219 L 295.003906 169.824219 C 294.714844 168.972656 293.917969 168.398438 293.023438 168.398438 C 292.488281 168.398438 279.632812 168.542969 262.605469 181.316406 C 246.496094 193.398438 242.792969 193.398438 234.691406 193.398438 L 222.191406 193.398438 C 221.636719 193.398438 221.105469 193.621094 220.714844 194.011719 C 218.519531 196.207031 217.941406 199.292969 219.167969 202.269531 C 220.738281 206.035156 225.632812 210.066406 234.691406 210.066406 C 240.683594 210.066406 249.40625 205.25 259.511719 199.671875 C 271.917969 192.828125 285.992188 185.066406 297.191406 185.066406 C 297.863281 185.066406 298.492188 184.746094 298.878906 184.203125 C 299.273438 183.65625 299.378906 182.957031 299.167969 182.324219 Z M 299.167969 182.324219"/><path fill="#FFDC5D" d="M 244.722656 182.980469 C 244.722656 192.1875 237.261719 199.648438 228.058594 199.648438 C 218.851562 199.648438 211.390625 192.1875 211.390625 182.980469 C 211.390625 173.777344 218.851562 170.480469 228.058594 170.480469 C 237.261719 170.480469 244.722656 173.777344 244.722656 182.980469 Z M 244.722656 182.980469"/><g clip-path="url(#b)"><path fill="#9AAAB4" d="M 218.023438 182.980469 C 226.355469 182.980469 234.691406 178.816406 234.691406 182.980469 C 234.691406 187.148438 234.691406 195.480469 243.023438 195.480469 C 251.355469 195.480469 255.523438 166.316406 230.523438 166.316406 C 205.523438 166.316406 205.523438 182.980469 218.023438 182.980469 Z M 218.023438 182.980469"/></g><path fill="#BDDDF4" d="M 222.191406 185.066406 C 222.191406 185.476562 222.152344 185.882812 222.070312 186.285156 C 221.992188 186.6875 221.871094 187.078125 221.714844 187.457031 C 221.558594 187.835938 221.367188 188.195312 221.136719 188.539062 C 220.910156 188.878906 220.648438 189.195312 220.359375 189.484375 C 220.070312 189.773438 219.753906 190.035156 219.414062 190.261719 C 219.070312 190.488281 218.710938 190.683594 218.332031 190.839844 C 217.953125 190.996094 217.5625 191.117188 217.160156 191.195312 C 216.757812 191.277344 216.351562 191.316406 215.941406 191.316406 C 215.53125 191.316406 215.125 191.277344 214.722656 191.195312 C 214.320312 191.117188 213.929688 190.996094 213.546875 190.839844 C 213.167969 190.683594 212.808594 190.488281 212.46875 190.261719 C 212.128906 190.035156 211.8125 189.773438 211.519531 189.484375 C 211.230469 189.195312 210.972656 188.878906 210.742188 188.539062 C 210.515625 188.195312 210.324219 187.835938 210.167969 187.457031 C 210.007812 187.078125 209.890625 186.6875 209.8125 186.285156 C 209.730469 185.882812 209.691406 185.476562 209.691406 185.066406 C 209.691406 184.65625 209.730469 184.25 209.8125 183.847656 C 209.890625 183.445312 210.007812 183.054688 210.167969 182.671875 C 210.324219 182.292969 210.515625 181.933594 210.742188 181.59375 C 210.972656 181.25 211.230469 180.9375 211.519531 180.644531 C 211.8125 180.355469 212.128906 180.097656 212.46875 179.867188 C 212.808594 179.640625 213.167969 179.449219 213.546875 179.292969 C 213.929688 179.132812 214.320312 179.015625 214.722656 178.9375 C 215.125 178.855469 215.53125 178.816406 215.941406 178.816406 C 216.351562 178.816406 216.757812 178.855469 217.160156 178.9375 C 217.5625 179.015625 217.953125 179.132812 218.332031 179.292969 C 218.710938 179.449219 219.070312 179.640625 219.414062 179.867188 C 219.753906 180.097656 220.070312 180.355469 220.359375 180.644531 C 220.648438 180.9375 220.910156 181.25 221.136719 181.59375 C 221.367188 181.933594 221.558594 182.292969 221.714844 182.671875 C 221.871094 183.054688 221.992188 183.445312 222.070312 183.847656 C 222.152344 184.25 222.191406 184.65625 222.191406 185.066406 Z M 222.191406 185.066406"/><path fill="#67757F" d="M 215.941406 193.398438 C 211.34375 193.398438 207.605469 189.660156 207.605469 185.066406 C 207.605469 180.46875 211.34375 176.730469 215.941406 176.730469 C 220.535156 176.730469 224.273438 180.46875 224.273438 185.066406 C 224.273438 189.660156 220.535156 193.398438 215.941406 193.398438 Z M 215.941406 180.898438 C 213.644531 180.898438 211.773438 182.769531 211.773438 185.066406 C 211.773438 187.359375 213.644531 189.230469 215.941406 189.230469 C 218.238281 189.230469 220.105469 187.359375 220.105469 185.066406 C 220.105469 182.769531 218.238281 180.898438 215.941406 180.898438 Z M 215.941406 180.898438"/><path fill="#BDDDF4" d="M 234.691406 185.066406 C 234.691406 185.476562 234.652344 185.882812 234.570312 186.285156 C 234.492188 186.6875 234.371094 187.078125 234.214844 187.457031 C 234.058594 187.835938 233.867188 188.195312 233.636719 188.539062 C 233.410156 188.878906 233.148438 189.195312 232.859375 189.484375 C 232.570312 189.773438 232.253906 190.035156 231.914062 190.261719 C 231.570312 190.488281 231.210938 190.683594 230.832031 190.839844 C 230.453125 190.996094 230.0625 191.117188 229.660156 191.195312 C 229.257812 191.277344 228.851562 191.316406 228.441406 191.316406 C 228.03125 191.316406 227.625 191.277344 227.222656 191.195312 C 226.820312 191.117188 226.429688 190.996094 226.046875 190.839844 C 225.667969 190.683594 225.308594 190.488281 224.96875 190.261719 C 224.628906 190.035156 224.3125 189.773438 224.019531 189.484375 C 223.730469 189.195312 223.472656 188.878906 223.242188 188.539062 C 223.015625 188.195312 222.824219 187.835938 222.667969 187.457031 C 222.507812 187.078125 222.390625 186.6875 222.3125 186.285156 C 222.230469 185.882812 222.191406 185.476562 222.191406 185.066406 C 222.191406 184.65625 222.230469 184.25 222.3125 183.847656 C 222.390625 183.445312 222.507812 183.054688 222.667969 182.671875 C 222.824219 182.292969 223.015625 181.933594 223.242188 181.59375 C 223.472656 181.25 223.730469 180.9375 224.019531 180.644531 C 224.3125 180.355469 224.628906 180.097656 224.96875 179.867188 C 225.308594 179.640625 225.667969 179.449219 226.046875 179.292969 C 226.429688 179.132812 226.820312 179.015625 227.222656 178.9375 C 227.625 178.855469 228.03125 178.816406 228.441406 178.816406 C 228.851562 178.816406 229.257812 178.855469 229.660156 178.9375 C 230.0625 179.015625 230.453125 179.132812 230.832031 179.292969 C 231.210938 179.449219 231.570312 179.640625 231.914062 179.867188 C 232.253906 180.097656 232.570312 180.355469 232.859375 180.644531 C 233.148438 180.9375 233.410156 181.25 233.636719 181.59375 C 233.867188 181.933594 234.058594 182.292969 234.214844 182.671875 C 234.371094 183.054688 234.492188 183.445312 234.570312 183.847656 C 234.652344 184.25 234.691406 184.65625 234.691406 185.066406 Z M 234.691406 185.066406"/><path fill="#67757F" d="M 228.441406 193.398438 C 223.84375 193.398438 220.105469 189.660156 220.105469 185.066406 C 220.105469 180.46875 223.84375 176.730469 228.441406 176.730469 C 233.035156 176.730469 236.773438 180.46875 236.773438 185.066406 C 236.773438 189.660156 233.035156 193.398438 228.441406 193.398438 Z M 228.441406 180.898438 C 226.144531 180.898438 224.273438 182.769531 224.273438 185.066406 C 224.273438 187.359375 226.144531 189.230469 228.441406 189.230469 C 230.738281 189.230469 232.605469 187.359375 232.605469 185.066406 C 232.605469 182.769531 230.738281 180.898438 228.441406 180.898438 Z M 228.441406 180.898438"/></svg>